<?xml version="1.0" encoding="utf-8"?>
<!-- Generator: Adobe Illustrator 24.0.3, SVG Export Plug-In . SVG Version: 6.00 Build 0)  -->
<svg version="1.1" xmlns="http://www.w3.org/2000/svg" xmlns:xlink="http://www.w3.org/1999/xlink" x="0px" y="0px"
	 viewBox="0 0 588.5 92.2" style="enable-background:new 0 0 588.5 92.2;" xml:space="preserve">
<style type="text/css">
	.st0{display:none;}
	.st1{fill:#3C3C3C;}
	.st2{fill:#95A47A;}
	.st3{fill:#AA6141;}
	.st4{fill:#4D4948;}
	.st5{fill:#FFFFFF;}
	.st6{fill:#1E1E1E;}
</style>
<g id="Background">
</g>
<g id="Image_Layer" class="st0">
</g>
<g id="Draw_Layer">
	<g>
		<g>
			<path class="st2" d="M487.9,11.2c-0.6,0.3-1.1,0.9-1.5,1.4c-5.3,6.9-10.6,13.8-16,20.7c-4,5.1-7.9,10.2-11.7,15.5
				c-1.8,2.5-3.6,5.2-4.6,8.1c-1.4,3.7,1.1,4.3,2.8,1.1c2.5-4.6,5.7-8.7,8.9-12.8c7.7-9.8,15.3-19.6,23-29.4
				c0.6-0.7,1.2-1.5,1.3-2.5c0.1-0.9-0.3-2-1.3-2.2C488.5,11,488.2,11,487.9,11.2z M480.5,20.3c0,0-0.1,0.1-0.1,0.1
				C480.5,20.4,480.5,20.3,480.5,20.3L480.5,20.3L480.5,20.3z M481.8,24.7c-0.1,0.1-0.1,0.2-0.2,0.2
				C481.7,24.9,481.8,24.8,481.8,24.7L481.8,24.7L481.8,24.7z M478.7,28.8c0,0-0.1,0.1-0.1,0.1C478.6,28.9,478.6,28.9,478.7,28.8
				L478.7,28.8L478.7,28.8z M468.4,36c0,0.1-0.1,0.1-0.1,0.2C468.3,36.1,468.4,36.1,468.4,36L468.4,36L468.4,36z M456.9,57.8
				c0,0,0,0.1,0,0.1C456.9,57.8,456.9,57.8,456.9,57.8L456.9,57.8L456.9,57.8z M479.2,22c0,0,0.1-0.1,0.1-0.1
				C479.3,21.9,479.2,21.9,479.2,22L479.2,22L479.2,22z"/>
			<path class="st2" d="M507.1,8.5c-0.3,0.2-0.7,0.6-0.9,0.9c-6.5,8-12.9,16-19.2,24.1c-4,5.2-8,10.5-11.4,16.1
				c-1.1,1.8-4.7,6.3-4.4,8.5c0.4,3.8,3.6-1,4.3-2c10.4-15.4,21.4-30.4,32.9-45c0.6-0.8,1.2-2.1,0.4-2.7
				C508.3,7.9,507.7,8.1,507.1,8.5z"/>
			<path class="st2" d="M457.3,29.9c-1.2,0.6-2.2,1.7-2.4,3c-0.2,1.1,0.1,2.1,0.5,3.1c4.2,9.8,17.7,8.5,26.1,6.5
				c7.6-1.8,15-4.4,22.4-7c0.6-0.2,1.2-0.5,1.2-1.1c0-0.9-1.3-1-2.2-0.8c-10.2,2.6-20.2,6.3-30.7,6.6c-2.7,0.1-5.4-0.1-8-1
				c-2.5-0.9-4.9-2.6-6.1-5c-0.2-0.5-0.4-1-0.2-1.5c0.2-0.4,0.7-0.6,1.1-0.6c1.7-0.3,3.5,0,5,0.8c0.5,0.3,1,0.7,1.6,0.8
				s1.3,0,1.6-0.6c0.4-0.9-0.6-1.7-1.5-2.2c-2-0.9-4-1.8-6.2-1.7C458.9,29.3,458.1,29.5,457.3,29.9z M463.7,32.7
				C463.7,32.7,463.8,32.7,463.7,32.7C463.8,32.7,463.7,32.7,463.7,32.7L463.7,32.7L463.7,32.7z"/>
			<path class="st2" d="M563.6,32.3c-5.6,1.8-9.9,6.1-12,11.5c-0.3,0.7-0.5,1.5-0.7,2.2c-0.1,0.4-0.2,0.8-0.2,1.2
				c-0.2,0.1-0.4,0.2-0.6,0.3c-3.2,1.9-6.8,3.2-10.6,3.9c-1.3,0.2-2.6,0.3-3.9,0c-1.1-0.2,0.2-2.5,0.5-3.1c0.5-1,1-2,1.6-3.1
				c0.7-1.3,1.3-2.5,1.9-3.9c0.4-1,1.4-2.7,0.4-3.6c-0.7-0.7-1.5-0.6-2.3-0.1c-1.2,0.7-2.2,1.5-3.2,2.4c-0.7,0.5-1.4,1.1-2.1,1.6
				c-1,0.8-2.1,1.5-3.1,2.3c-0.6,0.5-1.2,0.9-1.8,1.4c0-0.1,0.1-0.2,0.1-0.2c0.7-1.4,1.4-2.8,2-4.3c0.3-0.7,0.6-1.5,0.4-2.2
				c-0.1-0.5-0.4-0.9-0.8-1.2c-0.6-0.3-1.2-0.2-1.8,0c-0.5,0.2-0.9,0.5-1.3,0.8c-0.4,0.3-0.7,0.6-1.1,0.8c-1.3,1-2.5,2.1-3.8,3.2
				c-1,0.9-2.1,1.7-3.1,2.6c0.4-0.7,0.9-1.4,1.3-2.1c0.4-0.6,0.7-1.3,1-2c0.3-0.8,0.7-1.6,0.9-2.5c0.1-0.3,0.1-0.7,0.2-1.1
				c0.1-0.6,0-1.1-0.1-1.7c-0.1-0.5-0.3-1-0.6-1.5c-1.6-2.5-5.6-2.3-8.1-2.1c-2.4,0.2-5,0.9-7.4,0.7c0,0-0.1,0-0.1,0
				c-0.1,0-0.1-0.1-0.2-0.1c-0.4-0.1-0.8,0-1.2,0.2c-0.7,0.4-0.9,1.3-0.6,1.9c-0.5,0-0.9,0.2-1.2,0.5c-1.1,1.1-2.2,2.2-3.3,3.3
				c-2,2-4,4-5.7,6.2c-1.7,2.3-3.2,4.7-3.5,7.5c-0.1,1.5,0.4,2.9,1.6,3.8c2,1.7,4.9,0.8,7-0.1c5-2.1,8-6.5,8.8-11.8
				c0.1-0.6,0.6-8.3,0.1-8.3c0.6,0,1.1-0.1,1.7-0.2c-0.1,0-0.3,0-0.4,0.1c1.1-0.1,2.2-0.3,3.4-0.5c1.8-0.2,4.1-0.7,5.9-0.1
				c0.3,0.1,0.7,0.3,0.8,0.7c0.1,0.3,0.1,0.7,0.1,1c-0.3,1.9-1.4,3.7-2.3,5.3c-0.4,0.6-0.8,1.2-1.2,1.8c-0.4,0.6-0.7,1.1-1.1,1.7
				c-1.1,1.7-2.3,3.4-3.4,5.1c-0.2,0.3-0.4,0.5-0.5,0.8c-0.2,0.4-0.6,0.8-0.6,1.2c-0.1,0.5,0,1.1,0.4,1.5c0.5,0.5,1.3,0.6,1.8,0.2
				c0.4-0.2,0.7-0.5,1-0.8c0.3-0.3,0.5-0.5,0.8-0.8c0.6-0.6,1.2-1.1,1.8-1.6c1.2-1.1,2.5-2.1,3.7-3c1.2-1,2.4-2,3.6-3
				c1.2-1,2.3-2.1,3.4-3.1c0.3-0.2,0.6-0.5,0.8-0.7c-0.2,0.4-0.4,0.8-0.6,1.3c-0.6,1.1-1.2,2.1-1.8,3.1c-0.6,1-1.4,1.9-2,2.9
				c-0.3,0.5-0.6,1-0.9,1.4c-0.2,0.3-0.3,0.5-0.5,0.8c-0.2,0.3-0.5,0.7-0.6,1.1c-0.1,0.4-0.1,0.7,0.1,1.1c0.2,0.4,0.7,0.7,1.2,0.7
				c0.1,0,0.3,0,0.4-0.1c0.2-0.1,0.4-0.1,0.5-0.3c0.2-0.1,0.3-0.3,0.5-0.4c0.2-0.1,0.3-0.3,0.5-0.4c0.4-0.3,0.7-0.6,1.1-1
				c0.8-0.7,1.7-1.5,2.5-2.2c0.7-0.6,1.5-1.3,2.2-1.9c0.8-0.6,1.6-1.2,2.4-1.9c1.1-0.9,2.2-1.7,3.4-2.6c0.2-0.2,0.4-0.3,0.6-0.5
				c0,0,0,0,0,0c-0.8,1.4-1.7,2.7-2.4,4.1c-0.4,0.8-0.7,1.6-1,2.5c-0.1,0.3-0.2,0.6-0.3,1c-0.3,1.3,0,2.6,1.1,3.4
				c1,0.7,2.2,0.9,3.4,0.9c3.8-0.1,7.4-1.2,10.9-2.7c1.2-0.5,2.3-1.1,3.4-1.7c0.2,0.9,0.5,1.8,1.1,2.5c1.3,1.7,3.5,2.1,5.5,2.3
				c6.5,0.7,13-0.4,19.2-2.5c0.6-0.2,0.9-0.7,0.7-1.3c-0.4-1.5-2.5-0.4-3.4-0.2c-1.6,0.5-3.1,0.8-4.7,1.1c-4,0.7-8,0.8-12.1,0.4
				c-0.8-0.1-1.6-0.3-2.4-0.7c-1.1-0.7-1.5-1.9-1.4-3.1c0.8-0.5,1.6-1,2.5-1.5c2.5-1.6,5.1-2.9,7.4-4.9c1.2-1.1,2.3-2.2,3.3-3.4
				c0.9-1.1,2.1-2.5,2.6-3.9c0.2-0.5,0.2-1,0.1-1.5c-0.2-0.7-0.9-1.2-1.5-1.4c-0.5-0.2-1-0.2-1.5-0.2
				C565.2,31.9,564.4,32,563.6,32.3z M566,34.8c0.5,0.8-4.1,5.2-5.1,6.1c-1,0.8-2.1,1.6-3.3,2.3c-1,0.6-2.3,1.6-3.5,1.9
				c0-0.9,0.8-2,1.2-2.8c0.5-0.9,1.2-1.7,1.9-2.5C559.7,36.7,565.5,33.9,566,34.8z M497.3,45.3c0-0.1,0.1-0.1,0.1-0.2
				c1.4-1.7,2.9-3.2,4.4-4.8c0.7-0.7,1.5-1.5,2.2-2.3c0,0.8,0,1.7,0,2.6c-0.1,2.8-0.3,5.7-1.8,8.2c-1.3,2.2-3.4,3.8-5.7,4.8
				c-0.9,0.4-2.2,1-3.2,0.5c-1.4-0.7-0.1-3.2,0.4-4.1C494.7,48.4,496,46.9,497.3,45.3z M517.7,38.6c0,0,0,0.1-0.1,0.1
				C517.7,38.6,517.7,38.6,517.7,38.6L517.7,38.6L517.7,38.6z M533,41.2c0,0-0.1,0.1-0.1,0.1C533,41.2,533,41.2,533,41.2L533,41.2
				L533,41.2z M532,42C531.9,42,531.9,42,532,42C531.9,42,531.9,42,532,42L532,42L532,42z M554,45.2C554,45.2,554,45.2,554,45.2
				C554,45.2,554,45.2,554,45.2C554,45.2,554,45.2,554,45.2L554,45.2L554,45.2z M495.6,47.4C495.6,47.4,495.5,47.4,495.6,47.4
				C495.5,47.4,495.6,47.4,495.6,47.4L495.6,47.4L495.6,47.4z M535,51.3C535,51.3,535,51.3,535,51.3C535,51.3,535,51.3,535,51.3
				C535,51.3,535,51.3,535,51.3L535,51.3L535,51.3z M535.1,51.5C535.1,51.5,535.1,51.5,535.1,51.5C535.1,51.5,535.1,51.5,535.1,51.5
				C535.1,51.5,535.1,51.5,535.1,51.5L535.1,51.5L535.1,51.5z"/>
			<path class="st2" d="M47.1,11.3c-1.1,0.1-2.3,0.4-3.4,0.8c-4.1,1.4-7.6,3.9-11,6.6c-5.2,4.2-9.9,9-13.7,14.5s-6.5,11.7-7.5,18.3
				c-0.2,1.4-0.3,3,0,4.4c2,7.2,12.9,1.5,16.7-0.6c8.5-4.9,16.7-10.2,24.7-15.9c0.4-0.3,0.7-0.6,0.7-1c-0.1-0.4-0.5-0.6-0.9-0.6
				c-0.4,0-0.8,0.3-1.1,0.5C43.2,44.3,34.4,49.9,25.4,55c-1.6,0.9-3.2,1.8-5,2.3c-1.4,0.4-3.2,0.5-4.6,0.2C13.4,56.8,14,55,14.3,53
				c1.1-6.5,4.8-12.3,8.8-17.4c5-6.3,10.8-11.9,17.3-16.6c2.1-1.5,4.2-2.9,6.6-3.7c1.1-0.4,2.3-0.6,3.4-0.2c0.7,0.2,1.2,0.7,1.5,1.4
				c0.2,0.5,0.1,1.1,0,1.6c-0.5,2.2-1.9,4.3-3.3,6c-0.7,0.8-1.5,2-0.7,2.8c0.8,0.7,1.9-0.1,2.6-0.9c0.8-1,1.6-2,2.3-3.1
				c1.5-2.3,2.7-5.1,1.7-7.7c-0.7-1.9-2.7-3.2-4.7-3.6C48.9,11.3,48,11.2,47.1,11.3z M38.8,48.9C38.8,48.9,38.8,48.9,38.8,48.9
				C38.8,48.9,38.8,48.9,38.8,48.9L38.8,48.9L38.8,48.9z M14.1,56.5c0,0,0,0.1,0.1,0.1C14.1,56.6,14.1,56.6,14.1,56.5L14.1,56.5
				L14.1,56.5z"/>
			<path class="st2" d="M66.1,31.7c-0.3,0-0.6,0-0.9,0c-2.8,0.2-5.6,1.5-7.9,3.1c-0.1,0-0.1,0.1-0.2,0.1c-0.1,0-0.2,0-0.3-0.1
				c-0.4,0-0.8,0.1-1.1,0.3c-1,0.7-2.1,1.5-3,2.3c-0.9,0.7-1.7,1.5-2.5,2.3c-0.9,0.9-1.9,1.9-2.7,2.9c-0.8,0.9-1.5,1.9-2.2,2.9
				c-0.8,1.1-1.4,2.2-1.9,3.4c-0.5,1.3-1,2.6-1.3,3.9c-0.1,0.3-0.1,0.5-0.2,0.8c-0.1,0.5-0.1,1-0.1,1.5c0,0.3,0.1,0.7,0.3,1
				c0.2,0.3,0.4,0.6,0.7,0.9c0.2,0.2,0.5,0.3,0.8,0.4c0.4,0.1,0.8,0.2,1.2,0.1c1.9-0.1,3.9-1.8,5.2-3c2.4-2.5,4.1-4.9,5.7-7.9
				c0.3-0.5,0.5-1.1,0.7-1.6c0.2-0.6,0.4-1.2,0.6-1.8c0.3-0.9,0.5-1.9,0.6-2.8c0.1-0.8,0.1-1.7,0.1-2.6c0-0.1,0-0.1,0-0.2
				c0.1-0.1,0.2-0.1,0.3-0.2c1.3-0.9,2.7-1.7,4.2-2.3c1.1-0.4,2.2-0.7,3.3-0.8c0.4,0,0.8,0.1,1,0.4c0.6,0.8,0.3,2.2,0.2,3
				c-0.2,1.2-0.7,2.3-1.2,3.3c-1.4,3-3.2,5.9-5.1,8.6c-0.2,0.3-0.4,0.6-0.6,1c-0.1,0.2-0.2,0.3-0.3,0.5c-0.1,0.1-0.1,0.2-0.2,0.4
				c-0.1,0.3-0.1,0.6,0,0.8c0.1,0.2,0.3,0.5,0.6,0.5c0.3,0.1,0.8,0.1,1-0.2c1.9-1.6,3.5-3.5,5.4-5.1c2-1.7,4-3.5,6-5.1
				c0.9-0.8,1.8-1.5,2.8-2.3c0.9-0.7,1.8-1.4,2.8-2c0.2-0.1,0.5-0.3,0.8-0.4c-0.2,0.4-0.5,0.8-0.7,1.1c-0.3,0.5-0.7,0.9-1,1.4
				c-1.6,2.4-3.2,4.9-4.3,7.6c-0.5,1.1-1,2.4-0.7,3.7c0.3,1.3,1.5,1.9,2.8,1.8c1.9,0,3.8-0.7,5.5-1.4c1.1-0.4,2.2-0.9,3.2-1.5
				c3.4-1.9,6.6-4.1,9.7-6.4c0.3-0.2,0.3-0.6,0.1-0.8c-0.2-0.3-0.6-0.3-0.8-0.1c-3.8,2.6-7.6,5.5-12,7.1c-1.5,0.6-5.1,1.8-5.6,0.9
				c-0.5-0.9,4.3-8.2,4.7-9c0.6-1,1.1-2,1.6-3c0.4-0.9,1.1-2.2,1-3.2c-0.2-1.7-2.1-1.7-3.4-1.1c-2.2,1-4.2,2.6-6,4.2
				c-2,1.7-4,3.4-5.9,5.2c-0.1,0.1-0.2,0.2-0.3,0.2c0.2-0.3,0.3-0.6,0.5-0.9c0,0,0,0,0,0c1-1.9,2-3.8,2.4-5.9c0.2-1.3,0.2-2.7-0.3-4
				C68.6,32.6,67.5,31.8,66.1,31.7z M57.5,37.6C57.5,37.7,57.5,37.7,57.5,37.6C57.5,37.7,57.5,37.7,57.5,37.6
				C57.5,37.6,57.5,37.6,57.5,37.6L57.5,37.6L57.5,37.6z M57.5,37.7C57.5,37.7,57.5,37.7,57.5,37.7C57.5,37.7,57.5,37.7,57.5,37.7
				C57.5,37.7,57.5,37.7,57.5,37.7L57.5,37.7L57.5,37.7z M54.9,39.6c0.1-0.1,0.1-0.1,0.2-0.2c-0.1,3.3-1.5,6.4-3.2,9.1
				c-2,3.4-5.1,6.5-6.4,6.9c-2.3,0.7,0.4-4.2,0.6-4.7c1.6-3.1,3.7-5.9,6-8.4C53.1,41.4,54,40.5,54.9,39.6z"/>
			<path class="st2" d="M117.5,8.6c-7.8,9.2-15.9,18-22.6,28.1c-6.1,9.1-11.7,18.7-16.4,28.6c-0.4,0.8-0.7,1.7-1.1,2.5
				c-1,2.4-1.8,4.9-2.4,7.5c-0.5,2.1-1.7,5.7-0.6,7.7c1.1,2.1,3.9,1.2,5.2,0c4.3-3.8,7.1-8.9,9.1-14.2c2-5.4,3.6-11.4,3.8-17.2
				c0-0.4,0-0.8,0-1.2c0.1,0,0.2,0,0.3,0.1c0.4,0.1,0.8,0.1,1.2,0.2c3.4,0.2,6.8-2.1,9.7-3.7c1.4-0.8,2.7-1.7,4-2.6
				c0.2-0.1,0.3-0.2,0.5-0.4c-0.1,0.2-0.2,0.3-0.3,0.5c-0.4,0.6-0.7,1.3-1,1.9c-1,2-1.9,4.3-2,6.6c0,0.6,0.4,1.2,1.1,1.4
				c0.7,0.2,1.6-0.2,1.8-1c0.2-1.1,0.7-2.2,1.1-3.3c2-4.8,5.4-9,8.7-12.9c0.2-0.2,0.3-0.4,0.5-0.6c0.2-0.2,0.4-0.4,0.5-0.6
				c0.1-0.2,0.2-0.4,0.2-0.6c0-0.8-0.8-1.4-1.6-1.2c-0.4,0.1-0.8,0.4-1.1,0.7c-2.4,1.9-4.2,4.3-6.7,6.1c0.1,0,0.1-0.1,0.2-0.1
				c-2.3,1.7-4.7,3.4-7.2,4.7c-2.4,1.3-5.6,3.1-8.4,3c-0.4-0.1-0.7-0.1-1-0.3c0.6-1,1.2-1.9,1.9-2.9c0.9-1.3,1.7-2.6,2.5-3.9
				c6.9-10.5,14.7-20.5,22.8-30.1c0.3-0.4,0.5-0.8,0.5-1.3c0-0.5-0.2-0.9-0.5-1.3c-0.3-0.3-0.8-0.5-1.3-0.5
				C118.3,8,117.8,8.2,117.5,8.6z M109.7,24c-0.1,0.1-0.1,0.1-0.2,0.2C109.6,24.1,109.7,24,109.7,24L109.7,24L109.7,24z M104.8,30.5
				c-0.1,0.1-0.1,0.2-0.2,0.2C104.6,30.7,104.7,30.6,104.8,30.5L104.8,30.5L104.8,30.5z M97.7,47.5C97.6,47.5,97.6,47.5,97.7,47.5
				C97.6,47.5,97.6,47.5,97.7,47.5L97.7,47.5L97.7,47.5z M82,65.1c2.4-4.4,5.2-8.7,8-12.8c-0.7,4.8-1.8,9.5-3.2,14.1
				c-1.6,5-3.8,10-7.2,14.1c-0.8,1-4.4,3.9-3.7,0.6C77.1,75.5,79.3,70.2,82,65.1z M80,69.1c0,0.1-0.1,0.1-0.1,0.2
				C80,69.2,80,69.1,80,69.1L80,69.1L80,69.1z M79.3,80.9c0,0-0.1,0.1-0.1,0.1C79.3,81,79.3,81,79.3,80.9L79.3,80.9L79.3,80.9z
				 M76,82.3C76,82.3,76,82.3,76,82.3C76,82.3,76,82.3,76,82.3L76,82.3L76,82.3z M76.2,82.6C76.2,82.6,76.2,82.7,76.2,82.6
				C76.2,82.7,76.2,82.6,76.2,82.6L76.2,82.6L76.2,82.6z M76.3,82.7C76.4,82.7,76.4,82.7,76.3,82.7C76.4,82.7,76.4,82.7,76.3,82.7
				L76.3,82.7L76.3,82.7z M79.3,70.8C79.3,70.8,79.3,70.8,79.3,70.8C79.3,70.8,79.3,70.8,79.3,70.8C79.3,70.8,79.3,70.8,79.3,70.8
				L79.3,70.8L79.3,70.8z"/>
			<path class="st2" d="M139,30.2c-0.6,0.8-1.3,1.5-1.9,2.3c-0.5,0.6-1,1.2-1.5,1.8c-1.1,1.3-2.1,2.7-3.1,4.1
				c-0.3,0.4-0.7,0.9-1,1.3c-0.6-1.6-1.3-3.8-3.5-3.8c-4.3,0.1-9.6,9-10.6,11.3c-0.9,2-1.9,5.2-0.9,7.4c0.1,0.1,0.2,0.3,0.3,0.4
				c0.5,0.5,1.3,0.7,2,0.5c2.6-0.6,4.5-3,6.2-4.9c2.5-2.8,4.6-5.8,6.7-8.9c0.3-0.4,0.6-0.8,0.9-1.2c0.3-0.4,0.7-0.9,1-1.4
				c0.6-0.9,1.2-1.8,1.9-2.7c1.4-1.9,2.8-3.8,4.2-5.7c0.1-0.1,0.1-0.4-0.1-0.5c-0.1-0.1-0.2-0.1-0.3-0.1
				C139.1,30.1,139,30.2,139,30.2z M127.9,38.6C127.9,38.6,127.9,38.6,127.9,38.6L127.9,38.6L127.9,38.6z M128,38.7
				c2.1-0.8,2,2.8,2,2.8s-3.3,4.3-5.1,6.4c-1.5,1.7-3,3.4-4.8,4.7c-0.2,0.2-0.9,0.8-1.2,0.6c-0.4-0.1-0.3-0.8-0.2-1.1
				c0.7-3.2,2.4-6.2,4.4-8.8C124.4,41.5,126.4,39.3,128,38.7z M118.1,53.5C118.1,53.5,118.2,53.5,118.1,53.5
				C118.2,53.5,118.1,53.5,118.1,53.5L118.1,53.5L118.1,53.5z M118.6,53.9C118.6,53.9,118.6,53.9,118.6,53.9
				C118.6,53.9,118.6,53.9,118.6,53.9L118.6,53.9L118.6,53.9z M118.6,53c0,0,0-0.1,0-0.1C118.7,52.9,118.7,52.9,118.6,53L118.6,53
				L118.6,53z"/>
			<path class="st2" d="M147.1,18.6c-0.3,0.3-0.6,0.7-0.9,1c-2.2,3-4.5,5.9-6.7,8.9c-2.9,3.8-5.8,7.7-8.3,11.8
				c-2.1,3.5-3.8,7.1-4.6,11.1c-0.2,0.9-0.3,1.8-0.1,2.7c0.6,2.8,2.8,2.1,4.8,1.5c2.4-0.7,4.8-1.7,7-2.9c-0.1,2.3,0.6,3,2.1,3.2
				s2.9-0.6,4.2-1.3c7.6-4.3,13.7-10.6,20.6-15.9c-2.7,4.6-5.4,9.3-8.2,13.9c-0.4,0.6-0.7,1.5-0.2,2c0.7,0.6,1.7-0.2,2.2-0.9
				c3.4-4.3,7.3-8.1,11.5-11.6c1.7-1.4,4.8-3.9,5.4-3.3c0.7,0.7-4.4,8.4-6.6,12.9c-0.3,0.6-0.5,1.2-0.4,1.9c0.1,0.6,0.7,1.3,1.3,1.2
				c0.5-0.1,0.9-0.6,1.2-1c1.9-2.9,3.8-5.8,5.4-8.9c0.8-1.6,1.5-3.4,1.5-5.2c0-1.1-0.5-2.5-1.7-2.5c-0.4,0-0.7,0.1-1.1,0.3
				c-4.2,1.9-7.7,5.2-11.1,8.4c1.1-2,2.1-4.1,2.9-6.3c0.2-0.6,0.4-1.2,0.3-1.8c-0.1-0.6-0.6-1.2-1.2-1.2c-0.3,0-0.6,0.1-0.9,0.3
				c-2.5,1.4-4.6,3.4-6.8,5.3c-4.5,4-9.3,7.6-14.4,10.9c-1.2,0.8-2.8,1.7-3.4,1c-0.9-1,0.5-3.4,0.5-3.4s1.6-0.9,4-2.8
				c3.8-3,6.8-6.2,9.6-10.1c0.8-1,1.5-2.4,0.9-3.5c-0.4-0.7-1.2-1.1-2-1.1s-1.6,0.3-2.3,0.7c-1.9,1-3.5,2.4-5,3.9
				c-3.4,3.4-6.1,7.6-7.9,12c-0.2,0.6-0.5,1.6-0.5,1.6s-1.1,0.7-1.5,0.9c-1.3,0.7-7.3,3.3-7.8,2.3c-0.6-1.2,2.1-6.8,3.3-8.8
				c1.7-3,3.7-5.8,5.8-8.5c1.4-1.9,2.9-3.7,4.4-5.6c2.5-3.1,4.8-6.3,7.2-9.6c0.4-0.6,0.9-1.2,0.9-1.9c0.1-1.2-1.2-2.3-2.4-2
				C147.7,18.1,147.4,18.3,147.1,18.6z M154.5,34.7C154.5,34.8,154.5,34.8,154.5,34.7C154.5,34.8,154.5,34.8,154.5,34.7L154.5,34.7
				L154.5,34.7z M154.4,35.3c0.4,0.6-1.1,2.4-1.4,2.8c-1.5,1.9-3.2,3.7-4.9,5.3c-0.9,0.8-3.1,2.9-5.5,4.8c1.5-2.6,2.7-4.6,3.3-5.4
				c2-2.7,4-5.4,6.9-7.1C153.1,35.5,154.1,34.9,154.4,35.3C154.4,35.3,154.4,35.3,154.4,35.3z M151.3,36.7c0,0-0.1,0.1-0.1,0.1
				C151.2,36.7,151.3,36.7,151.3,36.7L151.3,36.7L151.3,36.7z M153,38.1C153,38.1,152.9,38.2,153,38.1C152.9,38.2,153,38.1,153,38.1
				L153,38.1L153,38.1z M176.1,38.3C176.1,38.4,176.1,38.4,176.1,38.3C176.1,38.4,176.1,38.4,176.1,38.3
				C176.1,38.4,176.1,38.4,176.1,38.3C176.1,38.4,176.1,38.4,176.1,38.3L176.1,38.3L176.1,38.3z M163.3,39.8
				C163.3,39.8,163.3,39.8,163.3,39.8C163.3,39.8,163.3,39.8,163.3,39.8L163.3,39.8L163.3,39.8z M155.7,44.8c0,0-0.1,0.1-0.1,0.1
				C155.6,44.9,155.7,44.8,155.7,44.8L155.7,44.8L155.7,44.8z M152.8,48.7c0,0-0.1,0.1-0.1,0.1C152.7,48.8,152.7,48.7,152.8,48.7
				L152.8,48.7L152.8,48.7z M149.6,49.4c0,0-0.1,0.1-0.1,0.1C149.5,49.4,149.6,49.4,149.6,49.4L149.6,49.4L149.6,49.4z M129.8,50.7
				c0,0,0,0.1-0.1,0.1C129.8,50.7,129.8,50.7,129.8,50.7L129.8,50.7L129.8,50.7z M129.7,50.9C129.7,51,129.7,51,129.7,50.9
				C129.7,51,129.7,51,129.7,50.9c-0.1,0.1-0.1,0.3-0.2,0.4C129.6,51.2,129.6,51.1,129.7,50.9L129.7,50.9L129.7,50.9z M140.5,54.1
				c0,0,0.1,0.1,0.1,0.1C140.6,54.1,140.6,54.1,140.5,54.1L140.5,54.1L140.5,54.1z M128.5,54.3c0,0,0,0.1,0.1,0.1
				C128.6,54.4,128.6,54.4,128.5,54.3L128.5,54.3L128.5,54.3z M128.6,54.4C128.6,54.4,128.6,54.5,128.6,54.4
				C128.6,54.5,128.6,54.4,128.6,54.4L128.6,54.4L128.6,54.4z M128.6,54.5C128.6,54.5,128.6,54.5,128.6,54.5
				C128.6,54.5,128.6,54.5,128.6,54.5C128.6,54.5,128.6,54.5,128.6,54.5L128.6,54.5L128.6,54.5z M128.6,54.5
				C128.6,54.5,128.7,54.5,128.6,54.5C128.7,54.6,128.7,54.6,128.6,54.5C128.7,54.6,128.6,54.5,128.6,54.5
				C128.6,54.5,128.6,54.5,128.6,54.5L128.6,54.5L128.6,54.5z M129.4,54.8C129.4,54.8,129.4,54.8,129.4,54.8
				C129.4,54.8,129.4,54.8,129.4,54.8L129.4,54.8L129.4,54.8z"/>
			<path class="st2" d="M130.8,20.2c-0.1,0-0.1,0-0.2,0.1c-1.1,0.4-2.2,0.9-3.2,1.4c-0.7,0.4-1.7,0.7-2.2,1.4
				c-0.7,0.9,0.9,0.9,1.5,0.8c1.8-0.2,3.6-1.2,5.1-2.3c0.3-0.2,0.5-0.4,0.6-0.7c0-0.4-0.3-0.7-0.7-0.8C131.3,20,131,20.1,130.8,20.2
				z"/>
			<path class="st2" d="M209.5,34.5c-1,0-2,0.3-2.9,0.6c-5.8,2.2-10.5,7.3-12,13.3c-0.1,0.3-0.1,0.6-0.1,0.6s-0.5,0.2-0.7,0.3
				c-3.5,1.1-6,1.7-9.7,1.7c-0.7,0-2.2-0.2-2.4-0.9c-0.4-1.3,0.7-3.4,1.4-4.4c1.4-2.2,3.2-4.2,5.2-5.8c1.2-0.9,2.6-1.7,4.1-1.6
				c0.6,0,1.5,0.8,2.2,0.7c0.6,0,1.5-0.6,1.2-1.6c-0.1-0.6-0.6-1-1.2-1.3c-0.6-0.3-1.4-0.4-2.1-0.4c-1.6,0-3.2,0.5-4.6,1.3
				c-1.4,0.8-2.7,1.8-3.8,2.9c-2.1,2-3.9,4.3-5,7c-0.6,1.5-1,3.2-0.2,4.6c0.7,1.1,2.1,1.6,3.4,1.7c2,0.1,4.1-0.1,6-0.6
				c1.7-0.4,6-1.5,5.9-1.6c0.1,1.7,1,2.5,2.2,3c1.2,0.5,3.2,0.6,4.5,0.6c6.3,0.1,10.6-2.1,16.9-2.6c1.1-0.1,2.6,0.3,3-0.3
				c0.4-0.7-0.8-2-3.4-1.7c-3.3,0.4-6.5,1.2-9.8,1.8c-1.5,0.3-3.1,0.5-4.6,0.5c-1.4,0-3.3,0.1-4.5-0.7c-0.9-0.6-0.9-1.6-0.5-2.5
				c0,0,6-2.9,8.4-4.6c2.4-1.7,4.5-3.5,6-6.1c0.3-0.5,0.6-1.4,0.5-2c-0.1-0.9-0.8-1.5-1.7-1.9C210.8,34.5,210.1,34.4,209.5,34.5z
				 M210.5,36.8c0.3,0,0.6,0.2,0.6,0.5c0,0.6-1.5,2.7-2.7,3.8c-1.3,1.1-2.7,2.2-4.2,3.1c-1,0.6-2.1,1.4-3.1,1.9
				c-0.5,0.3-2.5,1.3-2.5,1.3s0.3-0.6,0.6-1.2c2.2-3.7,5-7.2,8.9-8.9C208.6,37.1,209.8,36.7,210.5,36.8z M193.9,38.6
				c0,0,0.1,0,0.1,0C194,38.6,193.9,38.6,193.9,38.6L193.9,38.6L193.9,38.6z M207.1,42.2C207.1,42.2,207,42.2,207.1,42.2
				C207,42.2,207.1,42.2,207.1,42.2L207.1,42.2L207.1,42.2z M201.9,42.2c0,0-0.1,0.1-0.1,0.1C201.9,42.3,201.9,42.3,201.9,42.2
				L201.9,42.2L201.9,42.2z M217.3,51.9C217.2,51.9,217.2,51.9,217.3,51.9C217.2,51.9,217.2,51.9,217.3,51.9L217.3,51.9L217.3,51.9z
				 M212.4,35.4C212.4,35.4,212.4,35.4,212.4,35.4C212.4,35.4,212.4,35.4,212.4,35.4L212.4,35.4L212.4,35.4z M212.3,35.3
				C212.3,35.3,212.3,35.3,212.3,35.3C212.3,35.3,212.3,35.3,212.3,35.3C212.3,35.3,212.3,35.3,212.3,35.3L212.3,35.3L212.3,35.3z
				 M212.3,35.3C212.3,35.3,212.2,35.3,212.3,35.3C212.2,35.3,212.3,35.3,212.3,35.3L212.3,35.3L212.3,35.3z"/>
			<path class="st2" d="M401.5,37.4c-1.2,0.1-2.3,0.6-3.4,1.1c-3.5,1.9-6.4,4.7-8.7,8c-1,1.4-1.8,2.9-2.3,4.6
				c-0.2,0.7-0.3,1.5-0.2,2.3c0.2,0.9,0.7,1.8,1.6,2c1,0.3,2.3-0.1,3.2-0.6c1.1-0.6,2.1-1.4,3-2.2c3-2.6,6.1-5.2,9.1-7.9
				c0.2-0.2,0.5-0.5,0.6-0.8c0.1-0.3-0.2-0.7-0.5-0.6c0.3-1.1,0.5-2.2,0.7-3.4c0.1-0.4,0.1-0.8,0-1.2c-0.2-0.8-1.1-1.3-2-1.4
				C402.4,37.4,402,37.4,401.5,37.4z M402.6,40.3c1,0.8,0,2.8-0.3,3.8c-2.3,1.9-3.6,3.6-6,5.3c-1.3,0.9-2.6,1.9-3.9,2.7
				c-0.4,0.3-0.8,0.5-1.3,0.7c-0.5,0.2-1,0.4-0.8-0.3c0.3-0.9,1-1.9,1.6-2.7c1.2-1.7,2.5-3.4,4-4.9c1.5-1.6,3-3.1,4.8-4.2
				C401.2,40.3,402,39.9,402.6,40.3z"/>
			<path class="st2" d="M433.4,28.8c-0.2,0.1-0.4,0.2-0.5,0.3c-4.3,3-7.2,7.6-10.8,11.4c-3.3,3.5-7.2,6.3-11.3,8.8
				c-2.4,1.5-4.9,2.8-7.6,3.8c-1.1,0.4-3.7,1.4-4,0.4c-0.2-1,5.7-8.6,9.3-12.1c0.4-0.4,0.9-0.9,1.1-1.4c0.2-0.6,0.2-1.3-0.2-1.7
				c-0.4-0.5-1.2-0.5-1.8-0.2c-0.6,0.2-1,0.7-1.5,1.2c-3.2,3.4-6.5,6.8-8.4,11.1c-0.6,1.3-1.3,3.3-0.3,4.6c1.3,1.6,4.3,0.7,5.9,0.2
				c5.4-1.8,10.2-5.1,14.8-8.5c-0.8,1.6-1.7,3.3-1.7,5.1c0,0.7,0.1,1.4,0.4,2c0.4,0.6,0.9,1.2,1.6,1.5c2.1,1.1,4.4,0.8,6.5,0
				c1.4-0.6,2.8-1.3,4.1-2.2c0.6-0.4,3.3-2.5,2.8-3.3c-0.3-0.5-1-0.2-1.4,0.2c-2.6,2-5.8,3.6-9.1,3.4c-0.6,0-1.2-0.2-1.6-0.6
				c-0.6-0.7-0.1-1.8,0.4-2.7c4-6.6,8.6-12.8,13.7-18.6c0.3-0.4,0.7-0.8,0.8-1.3c0.1-0.5-0.1-1.1-0.6-1.2
				C433.8,28.7,433.6,28.8,433.4,28.8z M399,53.5C399,53.5,399,53.5,399,53.5C399,53.5,399,53.5,399,53.5L399,53.5L399,53.5z
				 M399.3,53.6C399.3,53.6,399.3,53.6,399.3,53.6C399.3,53.6,399.3,53.6,399.3,53.6C399.3,53.6,399.3,53.6,399.3,53.6L399.3,53.6
				L399.3,53.6z M399.3,53.9C399.3,54,399.3,54,399.3,53.9C399.3,54,399.3,54,399.3,53.9L399.3,53.9L399.3,53.9z"/>
			<path class="st2" d="M413.2,37.6c0,0.1,0,0.1,0,0.2c-0.3,1.8,3.1,2.1,4.3,2.3c2,0.4,4,0.5,6,0.5c3.3-0.1,6.5-0.5,9.7-1
				c1.2-0.2,2.3-0.4,3.5-0.5c0.3,0,0.6-0.1,0.7-0.4c0.1-0.3-0.1-0.6-0.4-0.8c-0.3-0.1-0.6-0.1-0.9,0c-7,0.9-14.2,1.1-20.9-0.9
				c-0.3-0.1-0.7-0.2-1-0.2C413.7,36.8,413.3,37.1,413.2,37.6z M420.6,38c0.1,0,0.1,0,0.2,0C420.7,38,420.7,38,420.6,38L420.6,38
				L420.6,38z"/>
			<path class="st2" d="M254.4,8.8c-3,0.1-6,0.4-8.9,1c-3.2,0.6-6.3,1.4-9.2,3c-2.1,1.1-4.3,2.9-4.6,5.3c-0.2,1.9,0.3,3,1.3,4.2
				c0.7,0.8,2,1.5,2.6,1.5c0.8-0.1,0.6-1,0.2-1.7c-0.4-0.7-1.1-1.2-1.5-2c-0.5-1.1-0.1-2.5,0.7-3.4s2-1.5,3.1-1.9
				c4-1.6,8.3-2.4,12.6-2.7c5.1-0.4,10.1-0.5,15.1,0.4c3.4,0.7,7.3,1.5,9.7,4.3c0.9,1.1,1.6,2.5,1.6,4c0,2.2-1.2,3.9-2.9,5.2
				c-4.6,3.6-10.8,5.2-16.4,6.3c-1.2,0.2-2.5,0.4-3.7,0.7c-1.1,0.2-2.2,0.4-3.3,0.7c-0.5,0.1-1.1,0.3-1.6,0.4
				c-0.2,0.1-0.5,0.1-0.8,0.1c-0.1,0-0.3,0.1-0.4,0.1c-0.2,0-0.4,0.1-0.6,0.2c-0.3,0.2-0.6,0.5-0.7,0.9c-0.1,0.4,0,0.8,0.1,1.1
				c0.2,0.3,0.5,0.6,0.9,0.7c0.3,0.1,0.5,0.1,0.7,0c0,0,0,0,0,0c0,0,0,0,0.1,0c0.6-0.1,1.1-0.1,1.7-0.2c5.4-0.9,15.2-1.7,15.9,6
				c0.2,1.8-0.4,3.1-1.5,4.6c-0.1,0.2-0.3,0.3-0.4,0.5c-0.4,0.1-0.7,0.1-1.1,0.2c-1.2,0.2-2.5,0.4-3.7,0.6c-0.7,0.1-1.3,0.2-2,0.3
				c-0.6,0.1-1.2,0.2-1.8,0.3c-1.2,0.2-2.5,0.5-3.7,0.8c-0.6,0.1-1.2,0.3-1.8,0.4c-0.6,0.1-1.2,0.3-1.7,0.5c-1.1,0.4-2.2,0.8-3,1.5
				c-0.3,0.2-0.6,0.5-0.8,0.8c-0.2,0.3-0.2,0.7-0.1,1.1c0.1,0.4,0.4,0.7,0.7,0.9c0.7,0.5,1.5,0.5,2.3,0.6c5.6,0.4,12.3-1,16.8-4.6
				c0.5-0.4,0.9-0.8,1.3-1.3c0.2-0.2,0.3-0.3,0.5-0.5c0.1,0,0.2,0,0.4-0.1c0.8-0.2,1.6-0.3,2.5-0.5c0,0.1,0,0.2,0,0.3
				c0.1,0.3,0.2,0.6,0.3,0.8c0.8,1.2,2.8,1.3,4.1,1.2c1.5-0.1,3-0.7,4.4-1.3c0.5-0.2,0.9-0.4,1.3-0.7c0.3-0.2,0.9-0.7,0.7-1.2
				c-0.1-0.4-1-0.2-1.4-0.1c-0.7,0.2-1.4,0.5-2.1,0.7c-0.7,0.2-1.7,0.6-2.3,0.7c-0.9,0.1-2.1,0.3-2.4-0.4c-0.1-0.1-0.1-0.7,0.1-0.7
				c0.7-0.2,1.4-0.3,2-0.5c1.1-0.3,2.2-0.7,3.3-1.2c0.7-0.3,1.3-0.5,1.9-0.8c0.6-0.3,1.1-0.6,1.6-0.9c1.1-0.6,2.2-1.3,3.1-2.1
				c1-0.8,1.9-1.7,2.7-2.8c0.2-0.2,0.3-0.5,0.4-0.8c0.3-0.6,0.6-1.3,0.3-2c-0.1-0.4-0.5-0.7-0.9-0.9c-0.3-0.2-0.7-0.2-1-0.3
				c-0.4,0-0.7-0.1-1.1,0c-0.7,0-1.4,0.2-2.1,0.3c-0.6,0.1-1.2,0.4-1.8,0.6c-1.3,0.4-2.5,1-3.7,1.6c-1,0.6-2,1.3-2.9,2
				c-0.5,0.4-1.1,0.8-1.6,1.3c-0.4,0.4-0.8,0.8-1.2,1.3c-0.4,0.5-0.8,1-1.1,1.6c-0.2,0.3-0.3,0.7-0.5,1c-0.1,0.3-0.2,0.6-0.3,0.9
				c0,0.1,0,0.1,0,0.2c-0.5,0.1-0.9,0.2-1.4,0.2c0-0.1,0.1-0.1,0.1-0.2c0.3-0.6,0.5-1.2,0.6-1.9c0.1-0.7,0.2-1.4,0.1-2
				c-0.3-3.4-2.1-6.6-5.2-8.1c-0.4-0.2-0.9-0.4-1.4-0.5c0.3-0.1,0.5-0.1,0.8-0.2c1.2-0.3,2.4-0.7,3.6-1.1c1.2-0.4,2.5-0.9,3.7-1.5
				c2.7-1.3,5.6-2.8,7.7-5.1c4.1-4.6,2.1-11.7-3-14.6c-4-2.3-8.4-3-12.9-3.3C259.6,8.6,256.7,8.7,254.4,8.8z M247.1,12.3
				c0,0-0.1,0-0.1,0C247,12.3,247,12.3,247.1,12.3L247.1,12.3L247.1,12.3z M277,19.7c0,0,0,0.1,0,0.1C277,19.8,277,19.8,277,19.7
				L277,19.7L277,19.7z M274.3,25.9c-0.1,0.1-0.2,0.1-0.2,0.2C274.1,26,274.2,26,274.3,25.9L274.3,25.9L274.3,25.9z M248.6,37
				C248.6,37,248.6,37,248.6,37C248.6,37,248.6,37,248.6,37L248.6,37L248.6,37z M248.5,37C248.5,37,248.5,37,248.5,37
				C248.5,37,248.5,37,248.5,37C248.5,37,248.5,37,248.5,37L248.5,37L248.5,37z M285.4,38.2c0,0,0.1,0.1,0.1,0.1
				c0.2,0.3-0.3,0.8-0.4,1c-0.3,0.4-0.7,0.8-1.1,1.1c-0.8,0.8-1.8,1.4-2.7,2c-1.2,0.8-2.6,1.6-3.9,2.1c-1.1,0.4-2.2,0.8-3.4,1.2
				c-0.5,0.1-0.9,0.3-1.4,0.4c0.1,0,0.2-0.3,0.2-0.4c1.2-1.9,3.1-3.4,5-4.7c2-1.3,4.2-2.6,6.6-3c0,0,0,0,0,0
				C284.6,38.2,285.1,38.1,285.4,38.2z M266,42.5C266,42.6,266,42.6,266,42.5C266,42.6,266,42.6,266,42.5L266,42.5L266,42.5z
				 M271.6,49C271.6,49,271.6,49,271.6,49C271.6,49,271.6,49,271.6,49C271.6,49,271.6,49,271.6,49L271.6,49L271.6,49z M249.9,52.8
				c0.6-0.2,1.2-0.3,1.8-0.5c1.2-0.3,2.4-0.6,3.6-0.9c1.2-0.3,2.4-0.5,3.7-0.7c0.6-0.1,1.3-0.2,1.9-0.3c-0.5,0.3-1.1,0.6-1.6,0.9
				c-1.5,0.6-2.8,1.1-4.5,1.4c-1.8,0.4-2.6,0.5-4,0.5c-1.2,0.1-2,0-2,0S249.6,53,249.9,52.8L249.9,52.8L249.9,52.8z M246.4,53
				C246.4,53,246.4,53,246.4,53C246.4,53,246.4,53,246.4,53L246.4,53L246.4,53z"/>
			<path class="st2" d="M263.6,18.9c-0.1,0.1-0.3,0.3-0.4,0.4c-8.1,9-15.4,18.7-21.7,29c-2.5,4,0.4,4.9,2.7,1.1
				c5.9-9.8,12.8-19.1,20.4-27.6c0.5-0.5,1-1.1,1.1-1.8c0.1-0.7-0.2-1.6-0.9-1.7C264.4,18.3,264,18.6,263.6,18.9z"/>
			<path class="st2" d="M299.5,36.7c-0.7,0-1.5,0.1-2.2,0.3c-0.6,0.2-1.3,0.4-1.9,0.7c-1.2,0.5-2.4,1-3.4,1.7
				c-1.2,0.8-2.3,1.6-3.4,2.5c-1,0.8-1.9,1.7-2.7,2.7c-0.5,0.6-0.9,1.2-1.3,1.8c-0.4,0.7-0.6,1.5-0.7,2.2c0,0.4,0,0.9,0.3,1.3
				c0.2,0.4,0.7,0.6,1.1,0.8c0.3,0.1,0.6,0.1,0.9,0.1c0.2,0,0.4,0,0.6,0c0.7,0,1.4-0.2,2.1-0.4c1.3-0.4,2.4-1.1,3.6-1.7
				c0.7-0.4,1.5-0.8,2.2-1.3c0.8-0.5,1.5-1,2.2-1.5c0.7-0.5,1.4-0.9,2-1.4c-0.4,0.5-0.7,1-1.1,1.5c-0.5,0.7-1,1.5-1.5,2.2
				c-0.4,0.6-0.9,1.3-1.3,1.9c-0.4,0.4-0.7,0.9-1.1,1.3c-0.2,0.3-9.1,4.4-11.8,5.9c-2.1,1.2-4.1,2.6-6,4c-1.2,0.9-2.4,1.9-3.6,2.8
				c-1.9,1.5-3.6,3.1-5.3,4.8c-1.6,1.6-3,3.4-3.5,5.6c-0.1,0.4-0.2,0.8-0.2,1.2c0,0.7,0.2,1.5,0.7,2c1.1,1,2.6,0.5,3.8,0.1
				c2.4-1,4.5-2.2,6.7-3.6c2-1.3,4.2-3,6-4.4c4-3.1,7.4-6.5,10.8-10.3c1.2-1.4,2.4-2.8,3.6-4.2c1.1-1.3,2.3-2.5,3.3-3.9
				c0.1-0.1,0.2-0.2,0.2-0.3c0.4-0.2,0.9-0.5,1.3-0.7c1.2-0.7,2.3-1.3,3.5-1.9c1.2-0.6,2.5-1.2,3.7-1.8c0.7-0.4,5.5-2.9,6.2-3.3
				c0.2-0.3,0.3-0.5,0.5-0.8c0.5-0.8,1-1.6,1.5-2.3c-0.6,0.3-5.3,2.8-5.9,3.1c-1.2,0.6-2.3,1.2-3.5,1.8c-1.2,0.6-2.4,1.1-3.6,1.7
				c-0.5,0.2-0.9,0.5-1.4,0.7c0.4-0.6,0.7-1.2,1.1-1.8c0.5-0.8,0.9-1.5,1.4-2.3c0.4-0.7,0.9-1.5,1.3-2.2c0.2-0.3,0.4-0.7,0.6-1
				c0.1-0.2,0.2-0.3,0.3-0.5c0.2-0.3,0.3-0.7,0.3-1.1c0.1-0.6-0.6-1.1-1.1-1.1c-0.2,0-0.4,0.1-0.6,0.2c-0.1,0-0.2,0.1-0.2,0.2
				c0,0,0,0-0.1,0.1c-0.4-0.3-0.8-0.5-1.2-0.7c-0.3-0.1-0.5-0.2-0.8-0.3c-0.4-0.2-0.9-0.2-1.3-0.3C300.1,36.8,299.8,36.7,299.5,36.7
				C299.5,36.7,299.5,36.7,299.5,36.7z M286.5,48.3c0.2-0.4,0.4-0.7,0.6-1c0.6-0.7,1.2-1.4,1.9-2.1c0.7-0.7,1.4-1.2,2.2-1.8
				c0.9-0.7,1.8-1.3,2.7-1.8c0.9-0.5,1.9-1,2.9-1.4c0.3-0.1,0.6-0.3,0.9-0.4c0.4-0.1,0.8-0.2,1.2-0.3c0.2,0,0.4,0,0.6,0
				c0.2,0,0.5,0,0.7,0c0.3,0,0.5,0.1,0.8,0.2c0.3,0.1,0.5,0.3,0.8,0.4c-0.2,0.2-0.4,0.3-0.6,0.5c-1,0.7-2,1.5-3.1,2.1
				c-1,0.7-2,1.3-3,1.9c-1.1,0.7-2.2,1.4-3.4,2c-1,0.5-2,1.1-3,1.6c-0.6,0.2-1.1,0.4-1.7,0.5c-0.2,0-0.5,0-0.7,0
				C286.4,48.5,286.5,48.4,286.5,48.3L286.5,48.3L286.5,48.3z M296.7,40.1c0,0-0.1,0-0.1,0C296.6,40.2,296.7,40.1,296.7,40.1
				L296.7,40.1L296.7,40.1z M285.7,57.8c1.5-0.8,3-1.5,4.6-2.2c-0.2,0.1-0.4,0.5-0.5,0.6c-0.2,0.2-0.4,0.5-0.5,0.7
				c-0.4,0.4-0.7,0.9-1.1,1.3c-0.7,0.9-1.5,1.7-2.2,2.5c-1.5,1.7-3.1,3.2-4.8,4.7c-3.3,3-6.7,5.6-10.4,8.1c-1.6,1.1-4.6,2.7-4.9,2.2
				c-0.3-0.6,0.5-1.9,0.8-2.4c0.5-0.8,1.1-1.5,1.7-2.2C273.3,65.8,279.2,61.3,285.7,57.8z M279.2,61.7
				C279.2,61.7,279.2,61.7,279.2,61.7C279.2,61.7,279.2,61.7,279.2,61.7L279.2,61.7L279.2,61.7z M265.8,75.9
				C265.8,75.9,265.8,75.9,265.8,75.9C265.8,76,265.8,76,265.8,75.9C265.8,75.9,265.8,75.9,265.8,75.9L265.8,75.9L265.8,75.9z
				 M265.8,76C265.8,76,265.8,76,265.8,76c0,0,0,0.1,0,0.1C265.8,76,265.8,76,265.8,76L265.8,76L265.8,76z M265.7,76.1
				c0,0,0,0.1,0.1,0.1C265.8,76.1,265.7,76.1,265.7,76.1L265.7,76.1L265.7,76.1z M265.8,76.3L265.8,76.3c0,0,0.1,0.1,0.1,0.1
				C265.9,76.3,265.9,76.3,265.8,76.3L265.8,76.3L265.8,76.3z"/>
			<path class="st4" d="M268.5,70.9C268.5,70.9,268.5,70.9,268.5,70.9C268.5,70.9,268.5,70.8,268.5,70.9
				C268.5,70.9,268.5,70.9,268.5,70.9L268.5,70.9L268.5,70.9z"/>
			<path class="st4" d="M268.4,71.1c0,0,0.1-0.1,0.1-0.1C268.4,71,268.4,71,268.4,71.1L268.4,71.1L268.4,71.1z"/>
			<path class="st2" d="M325.8,26.1c-0.8,0.2-1.5,0.6-2.1,1.2c-0.3,0.3-0.5,0.6-0.6,0.9c-0.2,1.6,2.5,0.9,3.2,0.6
				c0.5-0.2,1-0.5,1.2-0.9c0.3-0.4,0.3-1.1,0-1.5c-0.4-0.5-1.1-0.5-1.7-0.4C325.8,26,325.8,26,325.8,26.1z"/>
			<path class="st2" d="M370,38.7c-0.8,0.2-1.7,0.6-2.3,0.8c-1.4,0.6-2.7,1.4-4.1,2.2c-3.4,1.9-6.8,3.7-10.3,5.5
				c-1.2,0.6-2.3,1.2-3.4,1.8c-0.5,0.3-1,0.6-1.6,0.8c-1.3,0.5-4.3,2.2-5.5,1.6c-0.8-0.4,0.6-3.3,1.2-4.7c0.5-1.1,0.9-2.2,1.3-3.3
				c0.2-0.5,0.3-1.1,0.4-1.7c0.1-0.3,0.1-0.6,0.1-0.9c0-0.2,0-0.4-0.1-0.6c0-0.1-0.1-0.2-0.1-0.3c-0.1-0.1-0.2-0.2-0.2-0.3
				c-0.1-0.1-0.4-0.3-0.6-0.3c-0.2,0-0.3-0.1-0.5-0.1c-0.4,0-0.8,0.2-1.1,0.4c-2.2,1-10.4,8-11.2,8.5c0.2-0.4,0.4-0.7,0.6-1.1
				c0.3-0.6,0.6-1.2,0.8-1.8c0.1-0.3,0.2-0.5,0.3-0.8c0.1-0.3,0.1-0.7,0.2-1.1c0.1-0.5,0-1.2-0.4-1.6c-0.6-0.6-1.6-0.3-2.3,0
				c-2,0.8-5.2,2.9-7.7,4.6c-2.8,1.8-5.6,3.4-8.6,4.8c-1,0.5-2,1-3,1.4c-0.4,0.2-1.7,0.9-2.1,0.4c-0.4-0.4,5.2-7.5,7.2-10.3
				c0.3-0.4,0.5-0.8,0.8-1.2c0.1-0.2,0.2-0.4,0.3-0.6c0.1-0.2,0.2-0.4,0.2-0.6c0.1-0.2,0.1-0.4,0.1-0.6c0-0.6-0.5-1.1-1.1-1.1
				c-0.1,0-0.2,0-0.3,0c-0.3,0.1-0.5,0.3-0.8,0.5c-0.1,0.1-0.2,0.2-0.3,0.3c-0.2,0.2-0.4,0.4-0.6,0.7c-0.2,0.2-0.4,0.4-0.6,0.5
				c-0.1,0.1-0.2,0.1-0.4,0.2c-0.4,0.2-0.7,0.5-1.1,0.8c-0.3,0.3-0.7,0.5-1.1,0.7c-1.6,1.1-3.2,2.1-4.8,3.2
				c-0.2,0.1-0.3,0.4-0.2,0.6c0.1,0.2,0.6,0,0.8-0.1c1.1-0.7,2-1.1,3.1-1.8c-0.1,0.1-0.1,0.2-0.2,0.3c-0.8,1-1.6,1.9-2.2,2.9
				c-0.6,1.1-1.3,2.1-1.7,3.3c-0.2,0.5-0.4,1-0.5,1.5c-0.1,0.6-0.2,1.4,0.1,2.1c0.3,0.7,1.2,1,2,1.1c1.2,0.1,2.4-0.3,3.5-0.8
				c1.2-0.5,2.3-1,3.4-1.6c2.8-1.4,5.6-3,8.2-4.7c1.3-0.8,2.7-1.7,4-2.6c0.6-0.4,1.3-0.9,1.9-1.3c0.9-0.6,1.7-1.1,1.9-0.9
				c0.1,0.1-0.5,1.2-0.6,1.3c-0.5,0.8-1,1.7-1.5,2.5c-1,1.7-2.1,3.4-3.2,5.2c-0.1,0.1-0.1,0.2-0.2,0.3c-0.1,0.3-0.2,0.5-0.3,0.8
				c0,0.8,0.9,1.5,1.7,1.3c0.4-0.1,0.7-0.5,1.1-0.8c0.4-0.4,0.9-0.8,1.3-1.1c1.5-1.2,3-2.5,4.5-3.7c2.2-1.8,4.4-3.5,6.5-5.4
				c0.5-0.5,1.9-1.8,2-1.7c0.4,0.4-2.2,4.3-2.9,6.4c-0.5,1.7-0.7,3.9,1.2,4.7c1,0.4,2.1,0.2,3.2,0.1c3.5-0.5,6.6-2.4,9.6-4
				c0.5-0.3,1.1-0.5,1.6-0.8c1.1-0.7,2.3-1.2,3.4-1.8c1.7-0.9,3.3-1.9,4.9-2.9c1.6-1,3.2-2,5-2.7c0.5-0.2,1.3-0.6,1.6-0.4
				c0.3,0.2-1.3,3.2-1.9,4.1c-1.2,2-2.5,4-4.4,5.4c-1.8,1.4-4.1,2.2-6.4,1.4c-0.2-0.1-0.4-0.2-0.6-0.3c-0.6-0.3-1.4-0.2-1.8,0.5
				c-0.2,0.3-0.2,0.7-0.1,1c0.1,0.3,0.3,0.6,0.6,0.8c0.6,0.4,1.2,0.6,1.9,0.8c3.3,0.9,6.6-0.7,9-2.9c0.9-0.8,1.7-2,2.3-3
				c1.2-1.8,3.1-6.5,3.3-8.3c0.1-0.5-0.2-0.8-0.5-1.1C371.4,38.6,370.7,38.5,370,38.7z M370.4,40.2
				C370.5,40.2,370.5,40.2,370.4,40.2C370.5,40.2,370.4,40.2,370.4,40.2L370.4,40.2L370.4,40.2z M370.5,40.6
				C370.5,40.6,370.5,40.6,370.5,40.6C370.5,40.6,370.5,40.6,370.5,40.6L370.5,40.6L370.5,40.6L370.5,40.6z M336.7,44.4
				C336.7,44.4,336.7,44.4,336.7,44.4C336.7,44.4,336.7,44.4,336.7,44.4L336.7,44.4L336.7,44.4z M335.6,48.3c0,0-0.1,0.1-0.1,0.1
				C335.5,48.3,335.5,48.3,335.6,48.3L335.6,48.3L335.6,48.3z M335.4,48.4C335.4,48.4,335.3,48.4,335.4,48.4
				C335.3,48.4,335.4,48.4,335.4,48.4L335.4,48.4L335.4,48.4z M328.1,54.3C328.1,54.3,328.1,54.3,328.1,54.3
				C328.1,54.3,328.1,54.3,328.1,54.3C328.1,54.3,328.1,54.3,328.1,54.3L328.1,54.3L328.1,54.3z"/>
		</g>
	</g>
</g>
</svg>
