<?xml version="1.0" encoding="utf-8"?>
<!-- Generator: Adobe Illustrator 24.0.3, SVG Export Plug-In . SVG Version: 6.00 Build 0)  -->
<svg version="1.1" id="Layer_1" xmlns="http://www.w3.org/2000/svg" xmlns:xlink="http://www.w3.org/1999/xlink" x="0px" y="0px"
	 viewBox="0 0 397 41" style="enable-background:new 0 0 397 41;" xml:space="preserve">
<style type="text/css">
	.st0{opacity:0.452;}
	.st1{fill:#7E9835;}
</style>
<g id="Paint_Stroke">
	<g id="Group_386" transform="translate(-639.281 -106.29)" class="st0">
		<path id="Path_660" class="st1" d="M876.2,138.6c0.1,0.2,0,0.5-0.1,0.5c-2.1,0.1-4.1,0.1-6.2,0.1c-0.3,0-0.6-0.4-0.9-0.5
			c-0.9-0.1-1.8,0.1-2.6,0.6c-0.1,0-0.2,0.2-0.2,0.4c0,0,0.1,0.2,0.2,0.2c1.1,0,2.3,0.1,3.4,0c0.6,0,0.8,0.3,1.2,0.6
			c0.1,0.1,0.1,0.1,0.2,0.2c-0.1,0.1-0.2,0.3-0.4,0.3c-0.7,0.1-1.5,0.1-2.2,0.1c-0.5,0.7-1.1,0.6-1.6,0c-0.6,0-1.4-0.1-1.9,0.1
			c-0.7,0.6-1.8,0.6-2.5,0c-0.4-0.3-0.7-0.2-1.1-0.2c-2.9,0-5.8,0-8.7,0c-1,0-2,0.3-2.8-0.5c-0.4,0.7-0.8,0.1-1.2,0.1
			c-0.4,0.6-1,0.4-1.5,0.4c-7.6,0-15.2,0-22.8,0c-0.4,0-0.9,0-1-0.2c-0.5-0.6-1-0.3-1.5-0.4c-0.6-0.1-0.8,0.3-1.2,0.6
			c-0.2,0.1-0.4,0.1-0.5,0c-0.5-0.6-1-0.8-1.6-0.1c-0.2,0.1-0.5,0.2-0.7,0c-0.4-0.6-1.2-0.7-1.8-0.3c-0.1,0.1-0.2,0.2-0.3,0.4
			c-0.4-0.5-0.8-0.5-1.2,0l-0.6-0.5c-0.5,0.7-1,0.7-1.6,0l-2.4,0c-0.5,0.7-1.2,0.4-1.8,0.4c-7.6,0-15.2,0-22.8,0
			c-0.5-0.1-1.1,0-1.6,0.3c-0.9,0.5-2,0.4-2.8-0.1c-0.2-0.1-0.3-0.2-0.4,0c-0.3,0.5-0.8,0.4-1.3,0.4c-5,0-9.9,0-14.9,0
			c-0.7,0-1.3,0-2,0c-0.4,0-0.9,0.2-1.3,0.4c-0.6,0.3-1.2,0.3-1.8,0.1c-1-0.7-2.3-0.7-3.3,0c-0.3,0.2-0.7,0.1-1.1,0.1
			c-1.8,0-3.6,0-5.3,0c-0.9,0-1.8-0.4-2.6,0.5c-0.2,0.2-0.7,0.1-1.1,0.1c-2.2,0-4.3,0-6.5,0c-0.7,0-0.7,0-1.7-0.6c0-0.1,0-0.2,0-0.3
			c0-0.1,0.1-0.2,0.2-0.2c1,0.2,1.6-0.7,2.5-0.7c1.5,0,3,0,4.5,0c0.5,0,0.7-0.2,0.7-0.6c0-0.3-0.2-0.5-0.5-0.5
			c-1,0.2-2.3-0.5-3.1,0.5c-1-0.1-2.1,0.3-3-0.2c-0.6-0.4-0.9-0.5-1.4,0.1c-0.1,0.1-0.3,0.1-0.5,0.2c-1.1,0.8-2.6,0.8-3.8,0
			c-0.7-0.5-1.5-0.7-2.3-0.6c-1.1-0.1-2.2,0-3.3,0.1c-0.9,0.3-1.9,0.5-2.9,0.5c-0.9,0-1.9,0-2.8,0c-0.6,0-1.1,0-1.5-0.6
			c-0.5,0.8-1.3,0.5-2,0.5c-0.7,0-1.5,0-2.2,0c-0.6,0-0.8-0.7-1.5-0.6c-0.5,0.1-0.9,0.1-1.4,0c-0.6,0-1.1,0-1.7,0
			c-1-0.1-1.7,0.9-2.9,0.6c-1-0.1-2.1-0.1-3.1,0c-0.5-0.1-1.1,0-1.5,0.4c-0.2,0.2-0.9,0.1-1.3,0.1c-4.7,0-9.4,0-14,0
			c-0.8,0-1.7-0.2-2.3,0.6c0,0-0.2,0-0.3,0c-0.4,0-0.8,0.1-1-0.3c-0.1-0.3-0.1-0.6,0-0.8c0.2,0.1,0.5-0.1,0.5-0.3c0,0,0-0.1,0-0.1
			c0-0.4,0-0.7-0.6-0.7c0.1-0.2,0.1-0.5,0.2-0.5c0.7-0.1,1.5,0,2.2-0.1c0.8-0.1,1.7,0.3,2.3-0.5c0.9,0,1.9,0,2.8-0.1
			c0.1,0,0.2-0.2,0.3-0.3c0,0-0.1-0.2-0.2-0.2c-0.9,0-1.9,0-2.8,0h-0.3c-0.1,0-0.2,0-0.3,0c-0.2,0.2-0.4,0.4-0.6,0.5
			c-0.1,0-0.2,0-0.3,0h-18.3c-0.2,0-0.4,0-0.6,0c-1.1-0.2-2.4,0.5-3.4-0.6c-1.3,0-2.6,0-3.9,0.1c-0.1,0-0.2,0.3-0.2,0.4
			c0,0.3-0.1,0.6-0.4,0.6c-1.6,0-3.2,0.1-4.8,0c-0.7,0-0.3-0.4-0.1-0.6c0.2-0.2,0.2-0.3-0.1-0.4c-0.6-0.1-1.3,0.1-1.7-0.6
			c-0.7,0.1-1.4-0.2-2.1,0.3c-0.8,0.5-1.8,0.5-2.6,0c-0.4-0.2-0.7-0.5-1.2-0.1c-0.1,0.1-0.3,0.3-0.4,0.3c-1.9,0-3.7,0-5.6-0.1
			c-0.1,0-0.2-0.1-0.2-0.2c0-0.1,0.1-0.2,0.2-0.2c0.6,0.1,0.9-0.5,1.4-0.7c1.1-0.3,1.8-1.3,1.8-2.4c0-1,0.2-1-0.4-0.9
			c-0.4,0-0.9-0.1-1.1,0.1c-0.8,0.8-1.8,0.4-2.6,0.4c-0.4,0-0.8-0.8-1.2,0c-0.3-0.2-0.5-0.5-0.8-0.8c0,0,0.1-0.3,0.3-0.4
			c0.3-0.3,0.5-0.6,0.9-0.5c0.9,0.1,1.6-0.8,2.5-0.7c0,0,0.1-0.1,0.1-0.2c0-0.1-0.1-0.2-0.2-0.2c-1.1,0.2-2.2-0.3-2.9-1.2
			c-0.4-0.6-0.9-0.8-1.6-0.1c-0.2,0.2-0.7,0.1-1.1,0.1c-0.3,0-0.4-0.2-0.2-0.5c0.3-0.7,0.8-1.4,1.4-2c0.1-0.1,0.1-0.3,0.1-0.5
			c-0.1-0.4-0.8-0.7-0.5-1.2c0.2-0.4,0.7-0.6,0.9-1c0.3-0.5,0.4-1.1,1.2-1.2c0,0,0.1-0.1,0.1-0.2c0-0.1-0.1-0.2-0.2-0.2
			c-0.6,0-1.1-0.1-1.7,0c-0.5,0-0.9,0-0.9-0.7c0-0.3-0.4-0.6-0.6-0.8c-0.6-0.7-0.5-1.3,0.3-1.7c0.8-0.5,1.6-0.7,2.5-0.7
			c0.9,0.1,1.5-1,1.1-2c-0.1-0.3-0.2-0.2-0.4,0c-0.2,0.2-0.4,0.3-0.7,0.4c-0.8,0-1.7,0-2.5,0c-0.3,0-0.5,0.1-0.7,0.2
			c-0.2,0.1-0.5,0.4-0.7,0.3c-0.3-0.2-0.6-0.4-0.9-0.6c-0.1-0.1-0.2-0.1-0.2-0.2c0-0.1,0.1-0.2,0.2-0.2c0.6,0,1.3,0,1.9-0.1
			c0.6-0.1,1.3,0.3,1.8-0.3c0.5-0.5,1.2-0.1,1.9-0.3c0.2,0,0.3-0.3,0.4-0.3c0.8-0.2,1.3-0.9,2.2-0.8c0.4,0,0.8-0.4,1.2-0.5
			c0.5-0.1,0.4-0.5,0.5-0.8c0-0.1,0.3-0.3,0.4-0.3c0.7-0.1,1.5,0.2,2.1-0.5c0.2-0.2,0.7-0.1,1.1-0.1c1.4,0,2.8,0,4.2,0
			c0.6,0,1-0.8,1.7-0.6c0.6,0.1,1.1,0.1,1.7,0c0.8-0.2,1.3,0.6,2,0.6c5.1,0,10.1,0,15.2,0c0.8,0,1.2-0.8,2-0.6
			c0.8,0.1,1.7,0.1,2.5,0h7c0.8,0,1.5,0,2.2,0c1,0.1,1.8-0.8,2.9-0.6c1.1,0.1,2.2,0.1,3.4,0h3.1c1,0,2.1,0,3.1,0
			c0.9,0,1.6-0.8,2.6-0.6c0.9,0.1,1.9,0.1,2.8,0c0.9,0,1.9,0,2.8,0c0.4,0,0.6-0.3,0.9-0.5c0.2-0.1,0.3-0.1,0.5-0.1
			c0.4,0.3,0.8,0.8,1.2,0h1.4h4.8c1.2,0,2.4,0,3.7,0c0.9,0,1.9,0.4,2.6-0.5c0.6,0,1.1,0,1.7,0.1c0.3,0.1,0.5,0.5,0.9,0.5
			c1.1,0,2.3,0,3.4,0c0.2,0,0.4-0.3,0.7-0.4c0.3-0.2,0.7-0.1,1,0.2c0.4,0.4,0.8,0.3,1.2-0.1c0.4-0.4,0.8-0.3,1.2,0.1
			c0.1,0.1,0.1,0.1,0.2,0.2c1-1.1,2.3-0.3,3.4-0.6c0.3-0.1,0.6-0.7,0.9-0.5c1.2,0.9,2.5,0.5,3.7,0.5c0.4,0.1,0.7,0.2,0.9,0.5
			c0.1,0.1,0.5,0.1,0.5,0.1c0.5-0.8,1.3-0.4,2-0.7c0.7-0.5,1.5-0.5,2.3-0.2c0.2,0.1,0.3,0.5,0.6,0.1c0.3-0.5,1-0.3,1.4-0.8
			c0.2-0.3,0.7-0.1,0.9,0.2c0.2,0.3,0.5,0.4,0.8,0.2c0,0,0.1-0.1,0.1-0.1c0.5-0.5,1.3-0.6,1.9-0.1c0,0,0,0,0.1,0.1
			c0.1,0.1,0.3,0.2,0.5,0.2c1-0.2,2.1,0.5,2.9-0.4c0.2-0.2,0.3-0.2,0.4,0.1c0.3,0.4,0.8,0.5,1.2,0.3c0.9-0.5,1.9-0.7,2.9-0.5
			c1.4,0,2.8,0,4.2,0c0.6,0,1.1-0.1,1.5,0.5c0.1,0.1,0.3,0.1,0.5,0.1c1.1-1,2.5-0.4,3.7-0.5c0.2,0,0.5,0.2,0.7,0.3
			c0.5,0.3,0.7,0.3,1,0c1-1.2,2.1-1.2,3.3-0.4c0.5,0.2,0.9,0.4,1.4,0.6c0.4-0.5,1.1-0.7,1.7-0.6c0.4,0,0.7,0.1,1,0.4
			c0.3,0.4,0.7,0.2,1,0.2c0.6-0.1,1-0.7,1.7-0.6c0.7,0.1,1.3,0.1,2,0c0.4,0,0.7-0.2,1-0.4c0.2-0.1,0.5-0.2,0.7,0
			c0.3,0.3,0.8,0.5,1.2,0.5c1.3,0,2.6-0.1,3.9,0c0.5,0,0.7-0.7,1.1-0.4c0.5,0.4,0.9,0.6,1.4,0c0.2-0.1,0.5-0.2,0.8-0.2
			c0.8,0,1.7,0,2.5,0c0.7,0,1.5,0.2,2-0.5c0.1-0.1,0.5,0.1,0.7,0.2c0.1,0.1,0.4,0.2,0.4,0.2c0.7-0.8,1.6-0.4,2.3-0.5
			c0.8-0.1,1.7,0,2.5,0c0.1,0,0.2,0,0.2,0.1c0.4,0.9,1.5,0.1,1.9,0.8c0.3,0.4,0.4-0.1,0.6-0.2c0.1,0,0.1-0.1,0.2-0.2
			c0.6-0.3,0.9,0.6,1.5,0.6c0.5-0.1,0.8-0.9,1.4-0.5c0.8,0.7,1.9,0.7,2.7,0c0.1-0.1,0.4-0.1,0.5,0c0.7,0.7,1.5,0.5,2.3,0.5
			c0.8,0,1.7,0,2.5,0c0.3-0.1,0.5-0.2,0.7-0.4c0.4-0.2,0.5-0.8,1.1-0.7c0.2,0.1,0.3,0.1,0.5,0.2c0,0.1-0.1,0.1-0.1,0.2
			c-0.1,0.1-0.3,0.3-0.4,0.4c0.1,0.1,0.3,0.2,0.4,0.3c0.2,0,0.4,0,0.6,0c5.5,0,11.1,0,16.6,0c0.7,0,0.9-0.2,1-0.9
			c0.1-0.5,0.8-0.3,1.2-0.2c0.5,0.1,0.4,0.6,0.4,0.9c0,0.4,0,0.8,0.5,0.8c3.3,0,6.6,0,9.8,0c0.4,0,0.7-0.1,1-0.4
			c0.4-0.4,0.9-0.1,1.3-0.2c0.4,0.7,1.1,0.5,1.7,0.5c2.2,0,4.3,0,6.5,0c0.5-0.1,0.9,0.1,1.2,0.4c0.2,0.1,0.5,0.2,0.7,0
			c0.4-0.6,1-0.5,1.5-0.5c0.6,0,1.3,0.2,1.8-0.5c0.6,0,1.1-0.1,1.7,0c0.1,0,0.2,0.4,0.4,0.6c0.1,0.2,0.2,0.3,0.3,0.5
			c0.1-0.1,0.3-0.3,0.3-0.4c0-0.4,0.1-0.7,0.6-0.7c0.5,0,0.9,0,1.4,0c0.4,0.1,0.2,0.4-0.1,0.6s-0.3,0.3-0.1,0.4
			c0.9,0.4,1.9,0.2,2.5-0.5c0.4-0.5,0.5-0.4,0.7,0.2c0.1,0.3,0.2,0.5,0.5,0.5c0.3,0,0.6,0,0.8,0c0.3-0.1,0.3-0.4,0-0.6
			c-0.3-0.2-0.2-0.5,0.1-0.5s0.7-0.1,0.8,0c0.9,0.7,1.9,0.5,2.9,0.5s1.8,0.8,2.9,0.6c1.1-0.1,2.2-0.1,3.4,0c1,0,2.1,0,3.1,0
			c0.7,0,0.7,0.4,0.7,0.9c0,0.1,0.3,0.2,0.4,0.2c0.2,0,0.3-0.1,0.5-0.1c0-0.1-0.1-0.3-0.1-0.4c-0.2-0.2-0.3-0.5,0-0.6
			c0.7-0.2,1.5-0.1,2.2,0.1c0.6,0.2,0.8,0.8,0.9-0.3c0-0.3,0.3-0.3,0.5,0c0.1,0.1,0.3,0.2,0.4,0.2c0.3-0.3,0.5-0.6,0.8-0.1
			c0.1,0.1,0.1,0.1,0.2,0.2c0.3,0.4,0.7,0.6,1.2,0.6c0.7-0.1,1.5,0,2.2,0c0.4,0,0.7,0.2,1,0.4c0.3,0.2,0.7,0.3,1,0.1
			c1.1-0.8,2.3-0.4,3.4-0.6c1-0.2,1.7,0.7,2.6,0.6c1-0.1,2.1,0,3.1,0c0.5,0,0.9,0,1.4,0c0.5,0,0.5,0,0.2,0.7c0,0.1-0.1,0.2,0,0.2
			c0.5,0.4,1.2,0.3,1.6-0.2c0-0.1,0-0.2,0-0.3c0.1-0.3,0.3-0.5,0.6-0.4c0.3,0,0.5,0.2,0.5,0.4c0,0,0,0,0,0c0,0.1,0,0.2,0,0.3
			c0.1,0.1,0.2,0.2,0.3,0.3c0.1-0.2,0.2-0.3,0.2-0.5c0-0.5,0.3-0.6,0.7-0.6c0.2,0,0.3,0.2,0.4,0.3c0.9,0.6,2,0.9,3,0.9
			c0.4,0,0.7-0.1,1-0.4c0.5-0.5,0.5,0.3,0.8,0.3c0.4,0,0.8,0,1.1,0c1,0,2.1,0,3.1,0c0.5,0,1.1,0.2,1.5,0.6c0.4,0.3,0.9,0.5,1.4,0.6
			c0.8,0,1.7,0,2.5-0.1c0.1,0,0.1-0.1,0.2-0.2c0.4-0.4,0.8-0.4,1.2,0.1c0.2,0.3,0.6,0.4,0.9,0.2c0,0,0.1-0.1,0.1-0.1
			c0.5-0.5,1.3-0.6,1.9-0.1c0,0,0.1,0.1,0.1,0.1c0.2,0.1,0.6,0.2,0.7,0.1c0.4-0.3,0.6-0.6,1-0.1c0.3,0.4,0.7,1,1.2,0.1
			c0.7,0.9,1.7,0.5,2.6,0.5c1.2,0,2.5,0.1,3.7,0.3c0.5,0.2,1.1,0.3,1.7,0.2c0.1,0,0.2-0.2,0.2-0.2c-0.1-0.1-0.2-0.3-0.3-0.3
			c-0.7,0-1.5,0-2.2,0c-0.3,0-0.4,0-0.3,0.3c0.1,0.1,0.2,0.2,0.4,0.3c0.4,0,0.7,0,0.5-0.3c-1-0.6-0.7-0.8-0.4-0.8c1.2,0,2.4,0,3.7,0
			c0.8,0,0.8,0,1,1.2c0,0.2,0.1,0.3,0.2,0.5c0.1-0.2,0.2-0.4,0.3-0.6c0.1-0.2,0.2-0.3,0.3-0.4c0,0,0.2,0,0.3,0c0.7,0,1.5,0.2,2-0.6
			c0.2-0.1,0.4-0.1,0.5,0c0.4,0.4,0.9,0.6,1.5,0.6c0.9,0,1.8-0.2,2.6,0.5c0.3,0.2,0.9,0.1,1.4,0s0.6-0.7,1.2-0.6
			c0.4,0.1,0.7,0.5,1.2,0.6c0.5,0.1,0.8,0.7,1.2-0.1c0.1,0.1,0.1,0.1,0.2,0.2c0.4,0.4,0.7,0.5,1.2,0.1c0.1-0.1,0.2-0.2,0.4-0.2
			c0.8,0.9,1.8,0.3,2.6,0.5c0.1,0,0.3,0.2,0.4,0.3c-0.2,0.1-0.3,0.2-0.5,0.2c-1.2,0-2.4,0-3.7,0c-0.1,0-0.2,0.2-0.3,0.3
			c0,0,0.1,0.2,0.2,0.2c0.6,0,1.1,0,1.7,0c1.1,0.2,2.4-0.6,3.4,0.5c0.9,0,1.9,0,2.8,0c1.1,0.1,2.4-0.6,3.4,0.5c0.8,0,1.5,0,2.2,0
			c1,0.1,2-0.3,2.9,0.6c1.5,0,3,0,4.5-0.1c0.1,0,0.1-0.1,0.2-0.2c-0.1-0.1-0.3-0.3-0.4-0.3c-0.9-0.1-1.8-0.1-2.8-0.1
			c-0.1,0-0.2-0.1-0.2-0.2c0-0.1,0.1-0.2,0.2-0.2c1.2-0.1,2.4-0.1,3.6,0c0.8,0.1,1.4,0.6,2.3,0.5c0.8-0.1,1.7-0.1,2.5,0
			c0.1,0,0.2,0.2,0.3,0.3c0,0-0.1,0.2-0.2,0.2c-1.1,0-2.2,0-3.4,0c-0.1,0-0.2,0.2-0.2,0.4c0,0,0.1,0.1,0.2,0.2c0.1,0,0.2,0,0.3,0
			c0.7,0.1,1.5,0,2.2,0c0.9-0.2,1.4,0.8,2.3,0.6c0.7-0.1,1.5-0.1,2.2,0c0.3,0,0.6,0.4,0.9,0.4c0.2,0,0.4-0.3,0.6-0.4
			c0.2,0,0.4,0,0.5,0.1c0.2,0.1,0.4,0.4,0.7,0.4c0.8,0.2,1.6-0.3,2.4,0.3c0.6,0.5,1.5,0,2.1,0.2c0.7,0.2,1.2,0.8,2,0.6
			c0,0,0.1,0.1,0.2,0.2c0,0,0,0.2,0,0.2c-0.5,0.1-1,0.4-1.4,0.7c-0.2,0.1-0.4,0-0.5-0.1c-0.4-0.6-0.9-0.5-1.5-0.5
			c-0.6,0.1-1.3,0.1-2,0c-2.1-1-4.4-0.3-6.5-0.5c-0.5,0-0.9-0.2-1.2-0.5c-0.2-0.1-0.4-0.1-0.5,0c-0.4,0.5-1.1,0.7-1.8,0.6
			c0,0-0.2,0.3-0.2,0.4c0.7,0.7,1.6,1.1,2.5,1.3c1.3-0.1,2.6,0,3.9,0c0.5,0.1,0.7-0.9,1.3-0.3c0.4,0.4,1.2,0.4,1.5,1
			c0.2,0.4,0.6,0.4,1,0.4c0.2,0,0.3,0.3,0.1,0.4c-0.7,0.5,0,0.7,0.1,1c0.1,0.2-0.1,0.7-0.2,0.7c-0.5,0.1-1.1,0.1-1.7,0.1
			c-0.3,0-0.3-0.3-0.4-0.6c-0.1-0.4-0.6-0.7-0.8-0.5c-0.6,0.8-1.5,0.5-2.3,0.6c-0.1,0-0.1,0.2-0.2,0.4c0,0,0.1,0.1,0.2,0.2
			c1,0.4,1.1,0.7,0.4,1.7c-0.1,0.2-0.2,0.4,0,0.4c0.8,0,1.5,0.5,2.3,0.7c0.3,0,0.6,0,0.8,0c1.3,0,2.6,0.1,3.9,0.1
			c0,0,0.1,0.1,0.1,0.2c-1.3,0.5-2.6,0.1-3.8,0.2c-0.8,0.1-1.7,0-2.5,0c-0.1,0-0.3,0.4-0.3,0.6c0,0.1,0.1,0.4,0.2,0.4
			c0.5,0,0.9,0.1,1.4,0c0.6,0,0.8,0.8,1.5,0.6c0.5-0.1,0.9-0.1,1.4,0c0.6,0,1.1,0,1.7,0c0.6-0.1,1.1,0.2,1.5,0.6
			c0.2,0.2,0.7-0.1,0.8-0.5c0.1-0.3,0.3-0.6,0.3-0.5c0.5,0.7,1.3,0.2,1.7,0.6c0.4,0.4,1,0.4,1.4,0.7c0.6,0.5,0.7,0.4,1-0.4
			c0.1-0.3,0.7-0.6,0.8-0.4c0.6,0.9,1.6,1.3,2.6,1.1c0.1,0,0.3,0.2,0.4,0.3c0.5,0.2,0.5,0.2,0.6-0.3c0-0.2,0-0.4,0-0.6
			c0-0.4,0.6-0.7,0.7-0.5c0.4,0.5,1.2,0.4,1.6,0.9c0.1,0.1,0.3,0.2,0.5,0.2c0.3,0,0.6,0,0.4,0.4c0,0.1-0.3,0.1-0.5,0.2
			s-0.3,0.2-0.5,0.2c0.1,0.1,0.2,0.3,0.4,0.3c0.6,0.1,1.3-0.1,1.7-0.7c0.1-0.2,0.2-0.6,0.6-0.3c0.1,0.1,0.1,0.3,0.1,0.5
			c0,0.1,0,0.2,0.1,0.3c0.1,0.3,0.2,0.2,0.4,0.1c0.4-0.5,1.1-0.6,1.7-0.2c0,0,0,0,0,0c0.9,0.6,1.9,1,3,0.9c0.3,0,0.6,0.4,0.8,0.6
			c0.2,0.1,0.1,0.2,0,0.4c-0.7,0.7-0.7,0.8-1.6,0.2c-0.4-0.2-1,0-1.2-0.6c0-0.1-0.1-0.1-0.2-0.1c-0.7,0.9-1.4-0.6-2.1,0
			c-0.2,0.2-0.4,0.3-0.6,0.5c-0.3,0.2-0.8,0.1-0.9-0.3c0-0.6-0.3-0.8-0.8-0.8c-0.3,0-0.6,0-0.8,0c-0.5,0-0.5,0.3-0.6,0.7
			c-0.1,0.7-0.4,0.2-0.7,0.1c-0.4-0.1-0.9-0.2-1.3-0.2c-0.6,0-0.8-0.2-0.8-0.8c0-0.1-0.4-0.2-0.6-0.3c-0.6-0.2-0.9,0.3-1.4,0.5
			c-0.4-0.6-1.1-0.2-1.5-0.5c-0.6-0.4-1.3-0.6-2.1-0.5c-0.7,0-1.3,0-2,0c-0.8-1-1.9-0.5-2.9-0.5c-0.3,0-0.1,0.3,0,0.6
			c0.2,0.3,0.1,0.5-0.1,0.5c-0.2,0-0.4,0-0.6,0c-0.8-0.1-1.4-0.7-2.3-0.6c-0.8,0.1-1.7,0.1-2.5,0c-0.5,0.1-0.9-0.1-1.2-0.5
			c-0.1,0-0.1,0-0.2,0.1c-0.7,1.1-1.2-0.1-1.8-0.1c-0.3-0.6-1-0.7-1-0.3c0,0.9-0.6,0.9-1.2,0.9c-0.1-0.2-0.1-0.4-0.2-0.4
			c-0.3-0.1-0.4,0.2-3,0.7c-2.1,0.3-1.5,0.2-1,0.3c0.3,0.1,0.2,0.4,0,0.6c-0.1,0.1-0.1,0.2-0.1,0.4c0.4,0.3,1.5,0.2,1.5-0.1
			c0-1.1,0.7-0.8,1.3-0.9c0.3,0,0.5,0,0.8-0.1c0.1,0,0.2-0.1,0.2-0.2c0-0.1,0-0.2,0-0.3c-0.8,0.3-1.2-0.6-2-0.6c-1,0-2,0.4-2.9-0.5
			c-0.6,0-1.1,0-1.7,0c-0.7,0.1-0.8-0.6-1.5-0.6c-0.9,0-1.8,0.2-2.6-0.5c-0.2-0.1-0.6-0.1-0.8,0c-0.7,0.7-1.5,0.5-2.3,0.5
			c-1.4,0-1.4,0-2.7-1.5c-0.3-0.4-0.7-0.1-1-0.2c-0.2-0.1-0.5,0.1-0.5,0.3c0,0.1,0,0.1,0,0.2c0,0.7-0.4,0.7-0.9,0.7
			c-0.4,0-0.7-0.2-1-0.4c-0.5-0.3-0.7-0.2-1,0.4c-0.1,0.2-0.1,0.3-0.2,0.5c-0.3,0.5-0.3,0.7,0.1,0.7c0.8,0,1.7,0,2.5,0
			c0.7,0.8,1.7,0.5,2.6,0.6c0.7,0,1.4-0.2,1.9,0.1c0.5,0.3,1.1,0.5,1.6,0.8c0.7,0.5,1.6,0.4,2.3-0.2c0.2-0.2,0.4-0.5,0.6-0.6
			c0.4-0.2,0.5,0.3,0.8,0.5c0.3,0.2,0.6,0.5,0.8,0.8c0.2,0.2,0.3,0.2,0.4,0.1c0.6-0.7,1.4-0.2,4.8-0.7c2.9-0.3,3.1-0.3,3.2-0.3
			c-0.1,0.5,0.2,1.1-0.2,1.6c-0.1,0.2-0.5,0.3-0.1,0.6c0.3,0.1,0.7,0,0.9-0.3c0-0.1,0-0.2,0-0.3c0.1-0.3,0.6-0.7,0.8-0.5
			c0.4,0.4,0.9,0.6,1.5,0.6c0.9,0,1.9,0,2.8,0c0.6,0,0.5,0.4,0.6,0.8c0,0.3,0.3,0.4,0.6,0.4c0.4,0,0.8-1,1.3-0.1
			c0.6,0,1.1,0.1,1.7,0.1s1.1,0,1.7,0c0.6,0.8,1.5,0.5,2.3,0.6c0.1,0,0.2,0.2,0.3,0.3c0,0-0.1,0.2-0.2,0.2c-1.6,0-3.2,0-4.8,0
			c-0.6,0-1-0.8-1.7-0.6c-0.6,0.1-1.1,0.1-1.7,0c-0.6,0-0.5,0.4-0.6,0.8c-0.1,0.3-0.3,0.4-0.6,0.4c0,0,0,0,0,0
			c-0.3,0-0.5-0.2-0.5-0.5c0,0,0,0,0,0c0-0.4-0.1-0.8-0.6-0.3c-0.4,0.4-0.9,0.3-1.3,0.2c-0.3,0-0.4-0.3-0.4-0.6
			c0-0.2-0.1-0.5-0.3-0.5c0,0-0.1,0-0.1,0c-0.2,0-0.3,0.1-0.5,0.1c0,0.1,0.1,0.3,0.2,0.4c0.3,0.2,0.3,0.5,0,0.6c-0.6,0-1.1,0-1.7,0
			c-0.4-0.7-1.1-0.5-1.7-0.6c-0.8-1.4-2.2-1-3.5-1.1c-0.4,0-0.7,0-1.1-0.1c-0.3-0.2-0.5-0.5-0.8-0.1c-0.3,0.6-1,0.9-1.6,0.8
			c-0.7-0.1-1.3-0.1-2,0c-0.7,0.1-1-0.7-1.7-0.7c-0.4,0,0.1-0.4,0.2-0.5c0-0.1,0.1-0.1,0.2-0.2c-0.2-0.1-0.3-0.2-0.5-0.3
			c-0.5-0.2-0.7,0.7-1.1,0.4c-0.3-0.3-0.8-0.4-1.3-0.4c-0.7,0-1.5-0.2-2,0.5c-0.2,0.2-0.7,0-1.1,0c-0.2,0-0.4-0.1-0.5,0
			c-0.3,0.2-0.6,0.5-0.8,0.8c0.3,0.3,0.6,0.7,1,0.8c0.6,0.1,1.1,0.1,1.7,0c0.4,0,0.4,0,0.2,0.7c0,0.1,0.1,0.3,0.2,0.4
			s0.1,0.3,0.2,0.4c-0.2,0.1-0.4,0.2-0.5,0.1c-0.3-0.1-0.6-0.5-0.9-0.5c-0.7-0.1-1.3-0.1-2,0c-0.5,0-0.5,0.4-0.5,0.8
			c0,0.1-0.2,0.2-0.4,0.2c0,0-0.1-0.1-0.2-0.2c-0.1-0.1-0.2-0.1-0.4-0.1c-0.2,0.3-0.3,0.9-0.4,0.9c-0.9,0-1.9,0.5-2.6-0.3
			c-0.4-0.3-0.9-0.4-1.3-0.2c-2.1,0.7-2.1,0.7-3.8,0.1c-0.1,0-0.3,0-0.4,0.1c-0.2,0.3-0.7,0.4-1,0.2c-0.1-0.1-0.2-0.1-0.2-0.2
			c-0.4-0.4-0.8-0.3-1.2,0.1c-0.2,0.2-0.7,0.3-0.7,0.2c-0.5-0.7-1.3-0.5-2-0.6c-0.9-0.1-1.9,0.3-2.6-0.6l-2.8,0
			c-0.3-0.6-0.9-0.5-1.5-0.5c-0.5-0.1-0.9,0.1-1.2,0.5c-0.1,0-0.1,0-0.2,0c-0.6-0.8-1.4-0.4-2.1-0.4c-0.9,0.1-1.9,0-2.7-0.4
			c-0.4-0.2-0.9-0.2-1.3-0.1c-0.4,0.3-0.6,0.5-1.1,0c-0.2-0.2-0.9-0.1-1.3,0c-0.2,0-0.1,0.2,0,0.4c0.4,0.5,0.4,0.6-0.2,0.6
			c-0.3,0-0.6,0-0.8,0c-0.1,0-0.2,0.1-0.2,0.2c0,0.1,0.1,0.4,0.2,0.4c0.6,0,1.1,0,1.7,0c0.1,0,0.2,0.2,0.2,0.2
			c-0.1,0.1-0.2,0.3-0.3,0.3c-1.2,0-2.4,0-3.7,0c-0.3,0-0.5-0.2-0.5-0.5c0-0.3,0.1-0.5,0.4-0.6c0.2-0.1,0.6-0.1,0.7-0.3
			c0-0.2,0-0.5-0.2-0.7c-1.3-0.1-2.6-0.1-3.9-0.1c-0.5,0-1.1,0.1-1.3-0.1c-0.7-0.6-1.1-0.4-1.6,0.1c-0.3,0.2-0.7,0.2-1.1,0
			c-0.6-0.7-1.3-0.5-2.1-0.5s-1.5,0.2-2-0.6h-4.8c-0.8,0-1.5,0-2.2,0c-0.2,0-0.3-0.1-0.5-0.2c-0.2-0.2-0.4-0.4-0.6,0
			c-0.6,0.9-1.5,0.9-2.5,0.9c-0.1,0-0.2,0.2-0.3,0.3c0,0,0.1,0.2,0.2,0.2c1.3,0,2.6,0,3.9,0c0.1,0,0.2,0.2,0.2,0.4
			c0,0-0.1,0.2-0.2,0.2c-2.5,0-5.1,0-7.6,0c-0.6,0-0.8-0.7-1.5-0.6c-0.6,0.1-1.1,0.1-1.7,0c-0.6,0-1.1,0-1.7-0.1
			c-0.1,0-0.1-0.1-0.2-0.2c0.1-0.1,0.2-0.2,0.4-0.3c0.2,0,0.3-0.1,0.5-0.1c0.1,0,0.2-0.1,0.2-0.2c0-0.1-0.1-0.2-0.2-0.2
			c-0.5,0-0.9,0-1.4-0.1s-0.6,0.4-0.9,0.5c-0.2,0-0.6-0.3-0.9-0.5c-0.1,0-0.2,0-0.3,0c-0.5-0.1-0.9,0-0.9,0.7c0,0.2-0.1,0.6-0.5,0.2
			s-0.7-0.5-1.2-0.1c-0.2,0.2-0.6,0.4-0.7,0.3c-0.8-0.8-1.7-0.5-2.6-0.5c-0.7,0-0.7-0.4-0.7-0.9c0-0.1-0.1-0.1-0.2-0.2
			c-0.1,0.1-0.3,0.2-0.3,0.3c0,0.4,0,0.8-0.6,0.7c-1.4,0-2.8,0-4.2,0c-0.1,0-0.2,0.1-0.2,0.2c0,0.1,0.1,0.4,0.2,0.4
			c1.6,0,3.2,0,4.8,0c0.7,0,1.5-0.1,2,0.5c0.5-1,1,0.2,1.5,0.1c0.7-0.1,1.5-0.1,2.2,0c0.7,0,1.3,0,2,0c0.6,0,1.1,0,1.5,0.5
			c0.1,0.1,0.6,0,0.7-0.1c0.5-0.5,1.3-0.6,1.8-0.1c0,0,0.1,0.1,0.1,0.1c0.3,0.3,0.7,0.2,1.1,0.2c2.1,0,4.1,0,6.2,0
			c0.7,0,1.5-0.1,2,0.5c0.5-1,1,0.2,1.5,0.1c0.7-0.1,1.5-0.1,2.2,0c0.7,0,1.3,0,2,0c0.9-0.1,1.5,0.6,2.2,0.8c0.1,0,0.1,0.3,0.1,0.5
			s-0.2,0.4-0.3,0.4c-1.4,0.1-2.8,0.1-4.2,0c-0.7-0.1-1.2-0.7-2-0.5c-0.8,0.1-1.7,0.1-2.5,0c-0.8,0-1.5,0-2.2,0
			c-0.4,0-0.9-0.2-1.3-0.4c-0.9-0.5-2-0.4-2.8,0.2c-0.2,0.1-0.5,0.1-0.7,0c-0.3-0.3-0.8-0.5-1.2-0.5c-1.2,0-2.4,0-3.7,0
			c-0.3,0-0.6,0-0.8-0.1c-0.5-0.4-0.7-0.5-0.8,0.2c0,0.2-0.2,0.3-0.3,0.5c-0.1-0.1-0.2-0.3-0.3-0.4c-0.1-0.2,0-0.4-0.1-0.5
			c-0.2-0.1-0.5-0.2-0.7-0.1c-0.4,0.2-0.1,0.4,0.1,0.6c0.2,0.2,0.2,0.2,0.1,0.4c-0.6,0.6-1.3,1-2,1.2c-0.8,0.3-1.5-0.5-2.2-0.8
			c-0.3-0.1-0.5-0.5-0.8-0.8c-0.1,0-0.3,0.1-0.4,0.1c-0.8,0.3-0.8,0.3-1.2-0.6c0-0.1-0.2-0.2-0.2-0.2c-0.1,0.1-0.3,0.2-0.3,0.3
			c0,0.4,0,0.8-0.5,0.8c-0.8,0-1.7-0.1-2.5,0c-1,0.1-2.1-0.5-2.9,0.5c-0.7,0-1.3,0-2,0c-0.3,0-0.5-0.2-0.7-0.4
			c-0.6-0.9-1.8-1.1-2.6-0.5c0,0,0,0-0.1,0c-0.7,0.4-1,0.2-1.4-0.2c-0.1-0.1-0.3-0.3-0.4-0.4c-0.3-0.4-0.5,0-0.6,0.1
			C877,138.8,876.7,138.5,876.2,138.6c0,0,0.1,0,0.1,0c0-0.1,0-0.2,0-0.2c-0.1-0.2-0.3-0.4-0.5-0.1
			C875.8,138.3,876,138.5,876.2,138.6z M974.8,119.2c-0.1-0.1-0.2-0.2-0.2-0.2c-0.8-0.8-1.2-0.8-2.3,0c-0.3,0.3-0.4,0.4-0.1,0.5
			c0.5,0.1,1.1,0.1,1,1c0,0,0.2,0.2,0.2,0.2c0.1-0.1,0.3-0.2,0.3-0.2c0-0.6,0.2-0.8,0.8-0.8c0.1,0,0.2-0.2-3.8,0.5
			c0,0,0.2-0.1,0.3-0.2c0.4-0.2,0.5-0.8,1.1-0.8c0-0.1,0-0.2,0-0.3c0-0.1-0.1-0.2-0.2-0.2c-1.1-0.1-2.2-0.1-3.3-0.1
			c-1.2,0.2-2-0.9-3.1-0.6c-0.6,0.1-1.1,0.1-1.7,0c-0.7,0-0.6,0.4-0.7,0.9c-0.1,0.4-0.4,0.1-0.6-0.1c-0.2-0.2-0.3-0.3-0.4,0
			c-0.1,0.2-0.1,0.3-0.1,0.5c0,0.2,0.2,0.4,0.3,0.4c0.5,0,0.9,0,1.4,0c0.4,0.1,0.8,0.5,1.2,0.5c0.6,0.2,1.3,0.2,1.9-0.1
			c0.5-0.2,1-0.4,1.4-0.7c0.2-0.3,0.7-0.4,1.1-0.2c0,0,0.1,0.1,0.1,0.1C969.6,119.5,970.1,119.7,974.8,119.2L974.8,119.2z
			 M975.7,122.3h0.3c0-0.1,0-0.2,0-0.2c-0.1-0.2-0.3-0.4-0.5-0.1c0,0,0.2,0.2-4.7,0.9c-0.2,0-0.3,0-0.5,0c-0.2-0.1-0.3-0.1-0.5-0.2
			c0.1-0.1,0.2-0.3,0.3-0.4c0.2-0.2,0.3-0.3,0.1-0.4c-0.5-0.3-1.1,0.2-1.5-0.4c-0.1-0.1-0.3-0.2-0.4-0.2c-1,0.8-2.1,0.3-3.2,0.4
			c-0.1,0-0.3-0.4-0.3-0.6c-0.2-0.5-0.2-0.5-0.5-0.3c-0.5,0.4-0.8,1.1-1.6,1c-0.1,0-0.2,0.5-0.2,0.7c0,0.1,0.2,0.3,0.4,0.3
			c0.7-0.1,1.5,0.3,2.1-0.4c0.2-0.3,0.7-0.1,0.9,0.2c0.5,0.6,1.2,0.9,1.9,0.9c1.1,0,2.4-0.6,3.4,0.5c1.1,0,2.3,0,3.4,0
			c1-0.1,2,0.4,2.9-0.5c0.1-0.1,0.5,0.1,0.7,0.2c0.5,0.4,0.8,1,1.6,1c0.4,0.8,1.2,0.2,1.7,0.6c0.3,0.3,0.4,0.4,0.8,0.1
			c0.4-0.4,0.5-0.3,0.9,0c0.1,0.1,0.3,0.2,0.4,0.3c0.5-0.8,1.3-0.5,2-0.5c0.9-0.2,1.8,0,2.6,0.5c0.3,0.1,0.7,0.1,1-0.1
			c0.5-0.5,0.7-0.3,1,0.1c0.1,0.1,0.5,0,0.7-0.1c0.3-0.2,0.1-0.9-0.2-0.9c-0.7,0.1-1-0.5-1.3-0.8c-0.4-0.5-0.5,0-0.8,0.1
			c-0.2,0.1-0.5,0.1-0.7,0c-0.3-0.2-0.5-0.5-0.9-0.4c-0.9-0.7-2.1-0.9-3.1-0.3c-0.4,0.1-0.5,0.4-0.8,0c-0.2-0.2-0.4-0.4-0.6-0.6
			c-0.2-0.1-0.6-0.2-0.7-0.1c-0.6,0.6-1,0.7-1.6,0c-0.1-0.1-0.3-0.1-0.5-0.1c-0.7,0.8-1.7,0.5-2.6,0.5c-0.3,0-0.5-0.2-0.7-0.4
			c-0.7-0.6-0.5,0.1-0.5,0.4c0,0.3-0.1,0.5-0.4,0.6c0,0,0,0,0,0c-0.4,0.1-0.6-0.1-0.7-0.6c0-0.2,0-0.4,0-0.6c0-0.4-0.5-0.7-0.8-0.5
			c-0.5,0.5-1.1,0.7-1.8,0.5c-0.4-0.1-0.7,0.1-1,0.4C971.1,122.8,970.8,122.8,975.7,122.3L975.7,122.3z M985.4,120.3
			c-0.1-0.1-0.1-0.2-0.2-0.2c-0.5,0-0.8-0.4-1.2-0.6s-0.9,0-1.4,0c-0.9-0.1-1.8,0.3-2.6-0.5c-0.3-0.2-0.7-0.2-1,0
			c-0.4,0.5-1.1,0.7-1.8,0.5c-0.9-0.2-1.5,0.6-2.3,0.7c-0.1,0-0.2,0.1-0.2,0.2c0,0.1,0.1,0.2,0.2,0.2c0.6,0.2,1.3-0.1,1.7,0.6
			c0.7-0.1,1.4,0.3,2.1-0.3c0.5-0.5,1.2-0.1,1.9-0.2c0.1,0,0.3,0.3,0.3,0.4c0,0.7,0.4,0.7,0.9,0.7c0.6,0,0.9-0.2,0.8-0.8
			c0-0.1,0.2-0.2,0.3-0.3c0.1,0.2,0.2,0.3,0.2,0.5c-0.1,0.3,0.1,0.5,0.4,0.6c0,0,0,0,0.1,0c0.4,0,0.7,0,0.7-0.6
			c0-0.6,0.4-0.5,0.7-0.6C985.2,120.6,985.3,120.4,985.4,120.3L985.4,120.3z M965.1,135.2c0.7,0,1.3,0,2,0c0.1,0,0.2-0.2,0.4-0.3
			c-0.6-0.3-0.4-1-0.8-1.3c-0.2-0.1-0.4-0.1-0.5,0c-0.4,0.4-0.9,0.7-1.5,0.6c-0.7-0.1-1.5,0.2-2-0.6l-2.2,0
			c-0.4-0.7-1.1-0.5-1.7-0.5c-0.7,0-1.5,0-2.2,0.1c-0.2,0.2-0.2,0.4-0.2,0.7c0.3,0.4,0.6,0.9,1.3,0.9c0.9,0,1.9,0.1,2.8,0
			c1,0,1.9,0.2,2.9,0.6C963.8,135.3,964.5,135.3,965.1,135.2z M851.3,139.2c1.7,0,3.4,0,5,0c0.1,0,0.2-0.2,0.2-0.4
			c0,0-0.1-0.2-0.2-0.2c-0.7,0-1.3,0-2,0h-2c-0.7-0.1-1.5-0.1-2.2,0c-0.8,0.2-1-0.7-1.7-0.6c-2.4,0.1-4.8,0-7.3,0.1
			c-0.1,0-0.3,0.4-0.3,0.6c0,0.1,0.2,0.4,0.2,0.4c0.7,0,1.5,0,2.2,0c0.6,0,1.3-0.1,1.7,0.5c0.2,0.1,0.4,0.1,0.5,0
			c0.4-0.6,1.1-0.6,1.7-0.6C848.7,139.2,850,139.2,851.3,139.2L851.3,139.2z M759.2,139.5c-0.1-0.1-0.1-0.4-0.2-0.4
			c-0.9-0.1-1.9-0.1-2.8,0c-1,0.1-2.1-0.5-2.8,0.5c-0.7-0.1-1.4,0.2-2.1-0.4c-0.3-0.2-0.8-0.1-1.3-0.1c-0.1,0-0.2,0.3-0.2,0.4
			s0.1,0.5,0.1,0.5c0.4,0.1,1,0,1.3,0.2c0.4,0.3,0.6,0.3,1,0.1c0.7-0.4,1.7-0.3,2.3,0.3c0.1,0.1,0.6,0.1,0.7-0.1
			c0.2-0.3,0.6-0.4,1-0.4c0.6,0,1.3,0,2,0C758.6,140.3,758.8,139.8,759.2,139.5L759.2,139.5z M860,139.7h1.4
			c0.6-0.9,1.5-0.5,2.3-0.5c0.5-0.1,1.1,0,1.7,0c0.1,0,0.2-0.2,0.2-0.2c-0.1-0.1-0.2-0.3-0.3-0.3c-2.4,0-4.8,0-7.2,0
			c-0.1,0-0.2,0.2-0.2,0.4c0,0,0.1,0.2,0.2,0.2C858.8,138.9,859.4,139.4,860,139.7L860,139.7z M961.9,122.4
			c-0.1-0.3-0.1-0.5-0.2-0.6c-0.4-0.1-0.8-0.3-1.2-0.6c-0.4-0.2-0.9-0.2-1.2,0c-0.5,0.5-0.7,0.2-1-0.1c-0.2-0.2-0.6-0.1-0.8,0.1
			c0,0.1-0.1,0.1-0.1,0.2c0,0.2,0.1,0.7,0.3,0.7c0.4,0,0.7,0.2,1,0.4c0.4,0.4,0.5-0.4,0.8-0.4c0.4,0.1,0.9-0.2,1.3,0.2
			c0.2,0.2,0.4,0.3,0.7,0.3C961.6,122.8,961.7,122.5,961.9,122.4z M982.8,127.3c-0.6,0-1.1,0-1.7,0c-0.2,0-0.5,0.1-0.7,0.3
			c0.1,0.5-0.4,0.8-0.5,1.2c0.1,0.1,0.3,0.2,0.4,0.2c0.7,0,0.8-0.6,1.3-0.9c0.5-0.3,1.2-0.2,1.5,0.3c0.1,0.1,0.1,0.2,0.1,0.3
			c0.1,0.1,0.2,0.2,0.3,0.3c0.3-0.4,0.7-0.5,1.1-0.6c0.1,0,0.2-0.3,0.2-0.5c0.1-0.2-0.1-0.5-0.3-0.5c-0.1,0-0.1,0-0.2,0
			C983.9,127.3,983.3,127.3,982.8,127.3L982.8,127.3z M831.3,138c-1.4,0-2.8,0-4.2,0c-0.1,0-0.2,0.2-0.3,0.3c0,0,0.1,0.2,0.2,0.2
			c1,0,2-0.1,3.1,0c1,0.1,2.2-0.5,3.1,0.5c0.4-0.5,1.1-0.7,1.7-0.5c0.1,0,0.2-0.1,0.2-0.2c0-0.1-0.1-0.4-0.2-0.4
			C833.7,138,832.5,138,831.3,138z M953.4,118.5c0.1-0.6-0.1-1.3-0.6-1.6c-0.3-0.3-0.7-0.1-1-0.2c-0.5-0.1-0.6,0.3-0.6,0.7
			c0,0.2-0.2,0.3-0.3,0.4c-0.3,0.5-0.3,0.5,0.3,0.6c0.5,0.1,1.1-0.2,1.6,0.2C953,118.7,953.2,119.2,953.4,118.5z M815.8,138.6
			c1.1,0,2.2,0,3.4,0c0.1,0,0.2-0.1,0.2-0.2c0-0.1-0.1-0.4-0.2-0.4c-2.2,0-4.5,0-6.7,0c-0.1,0-0.2,0.1-0.2,0.2
			c0,0.1,0.1,0.4,0.2,0.4C813.6,138.6,814.7,138.6,815.8,138.6z M873.7,112.7L873.7,112.7c-0.7,0.1-1.5,0.1-2.2,0.1
			c-0.1,0-0.2,0.1-0.2,0.2c0,0.1,0.1,0.1,0.2,0.2c0.3,0.6,1,0.9,1.7,0.6c0.5-0.2,0.8-0.7,1.3,0c0.1,0.2,1.3-0.5,1.3-0.8
			c0-0.1-0.2-0.3-0.3-0.3C874.8,112.7,874.2,112.7,873.7,112.7L873.7,112.7z M949.5,133.4c0-0.2,0-0.4,0-0.6
			c-0.1-0.2-0.1-0.6-0.5-0.2c-0.2,0.2-0.4,0.3-0.7,0.3c-1.1,0-2.2,0-3.3,0c-0.3,0-0.6,0-0.8,0c-0.1,0-0.2,0.1-0.2,0.2
			c0,0.1,0.1,0.4,0.2,0.4c1.3,0,2.6,0,3.9,0c0.3,0,0.5,0.1,0.8,0.2C949.5,133.9,949.5,133.9,949.5,133.4L949.5,133.4z M948.9,120.9
			c0-0.7-0.3-1-1-0.8c-0.6,0.2-1.1,0.4-1.7,0.6c-0.1,0-0.1,0.1-0.2,0.2c0.1,0.1,0.1,0.2,0.2,0.2c0.7,0,1.4,0.2,1.9,0.6
			c0.2,0.2,0.7-0.2,0.7-0.6C948.9,121.1,948.9,121,948.9,120.9L948.9,120.9z M899.9,128.5c-0.5,0-0.9,0-1.4,0
			c-0.1,0-0.2,0.2-0.2,0.4c0,0,0.1,0.2,0.2,0.2c0.6-0.1,1.3,0.1,1.7,0.6c0.2,0.2,1.2-0.4,1.3-0.8c0-0.1-0.2-0.3-0.3-0.3
			C900.8,128.4,900.4,128.5,899.9,128.5z M905.7,135.8L905.7,135.8c0.6-0.1,1.3-0.1,1.9-0.1c0.1,0,0.2-0.1,0.2-0.2
			c0,0-0.1-0.1-0.1-0.2c-0.6-0.2-1.3-0.2-2-0.1c-0.5,0.1-1.1,0.1-1.6,0.1c-0.1,0-0.2,0.1-0.2,0.2c0,0.1,0.1,0.2,0.2,0.2
			C904.6,135.7,905.2,135.8,905.7,135.8L905.7,135.8z M948.2,128c-0.1,0-0.1,0-0.2,0c-0.8,0.4-0.8,0.9-0.1,1.4
			c0.4,0.3,1,0.2,1.4,0.7c0.1-0.1,0.2-0.3,0.2-0.5c0.1-0.2,0-0.5-0.3-0.6c0,0-0.1,0-0.1,0c-0.6,0-0.8-0.3-0.8-0.8
			C948.3,128.1,948.2,128.1,948.2,128L948.2,128z M964.1,129.6c-0.4,0-0.7,0-1.1,0c-0.6,0-0.7,0.5-1,0.8c0,0,0.1,0.3,0.2,0.4
			c1,0.3,1.6-0.5,2.4-0.7c0,0,0-0.2,0-0.2C964.4,129.7,964.3,129.7,964.1,129.6z M879.1,135.2c-0.6,0-1.3,0-1.9,0
			c-0.1,0-0.2,0.2-0.2,0.4c0,0,0.1,0.2,0.2,0.2c1.1,0,2.2,0,3.3,0c0.1,0,0.2-0.2,0.2-0.4c0,0-0.1-0.2-0.2-0.2
			C880.1,135.2,879.6,135.2,879.1,135.2L879.1,135.2z M762.1,139.2c-0.6,0-1.3,0-1.9,0c-0.1,0-0.2,0.2-0.2,0.4c0,0,0.1,0.2,0.2,0.2
			c1.1,0,2.2,0,3.3,0c0.1,0,0.2-0.2,0.2-0.4c0,0-0.1-0.2-0.2-0.2C763,139.1,762.6,139.2,762.1,139.2z M952.3,115c0.5,0,0.9,0,1.4,0
			c0.1,0,0.2-0.1,0.2-0.2c0-0.1-0.1-0.4-0.2-0.4c-0.9,0-1.8,0-2.8,0c-0.1,0-0.2,0.1-0.2,0.2c0,0.1,0.1,0.3,0.2,0.4
			C951.4,115,951.8,115,952.3,115L952.3,115z M950.9,120.6c-0.1,0-0.2,0-0.3,0c-0.2,0-0.3,0.1-0.5,0.2c0,0.1,0.1,0.3,0.2,0.4
			c0.2,0.2,0.4,0.4,0.6,0.6c0.2,0.1,0.4,0.1,0.5,0c0.2-0.2,0.3-0.4,0.3-0.7c0-0.2-0.1-0.3-0.3-0.4
			C951.2,120.6,951.1,120.6,950.9,120.6L950.9,120.6z M748.3,140.3c0.2,0,0.5,0.1,0.5,0c0.2-0.2,0.3-0.4,0.3-0.7
			c0-0.3-0.2-0.4-0.5-0.4c-0.6,0-0.7,0.5-1,0.8c0.1,0.1,0.1,0.3,0.2,0.3C747.9,140.3,748.1,140.3,748.3,140.3z M896,135.2l0.5-0.3
			c-0.1-0.1-0.2-0.3-0.3-0.4c-0.1-0.1-0.1-0.1-0.2-0.2c-0.1-0.3-0.5-0.4-0.8-0.3c-0.2,0.1-0.3,0.3-0.3,0.6c-0.1,0.5,0.3,0.6,0.7,0.6
			C895.7,135.2,895.7,135.2,896,135.2L896,135.2z M938.2,131.6c0-0.1,0-0.2,0-0.3c0-0.2-0.1-0.3-0.2-0.5c-0.1,0-0.3,0.1-0.4,0.2
			c-0.2,0.2-0.4,0.4-0.6,0.6c-0.1,0.2-0.1,0.4,0,0.5c0.2,0.2,0.4,0.3,0.7,0.3c0.2,0,0.3-0.1,0.4-0.3
			C938.2,131.9,938.2,131.8,938.2,131.6L938.2,131.6z M907.9,129.6c0.5,0,0.9-0.1,1.4-0.1c0.1,0,0.2-0.1,0.2-0.2
			c0-0.1-0.1-0.2-0.2-0.2c-0.8,0-1.6,0-2.4,0c-0.1,0-0.2,0.1-0.2,0.2c0,0.1,0.1,0.2,0.2,0.2C907.3,129.6,907.6,129.6,907.9,129.6
			L907.9,129.6z M923.5,130.7c0.6,0,1,0,1.5,0c0.1,0,0.2-0.1,0.2-0.2c0-0.1-0.1-0.3-0.2-0.4c0,0-0.2,0-0.3,0c-0.4,0-0.7,0-1.1,0
			c-0.2,0-0.3,0.1-0.5,0.2L923.5,130.7z M687.8,139.7c0.3,0,0.6,0,0.8,0c0.1,0,0.2-0.1,0.2-0.2c0-0.1-0.1-0.4-0.2-0.4
			c-0.6,0-1.1,0-1.7,0c-0.1,0-0.2,0.1-0.2,0.2c0,0.1,0.1,0.3,0.2,0.4C687.3,139.7,687.5,139.7,687.8,139.7L687.8,139.7z
			 M955.6,118.6c0.1-0.6-0.1-0.8-0.6-0.8c-0.3,0-0.5,0.1-0.5,0.4c0,0,0,0,0,0.1c-0.1,0.4,0.1,0.7,0.6,0.7
			C955.3,118.8,955.5,118.7,955.6,118.6L955.6,118.6z M969.4,126.8c0.4,0,0.7,0,1.1,0c0.1,0,0.2-0.2,0.2-0.4c0,0-0.1-0.2-0.2-0.2
			c-0.6,0-1.1,0-1.7,0c-0.1,0-0.2,0.2-0.2,0.4c0,0,0.1,0.2,0.2,0.2C969.1,126.8,969.3,126.8,969.4,126.8L969.4,126.8z M967.5,126.1
			c-0.1-0.1-0.2-0.3-0.4-0.4c-0.4-0.1-0.7,0.1-0.7,0.6c0,0.3,0.1,0.5,0.4,0.5c0,0,0,0,0.1,0C967.2,126.9,967.5,126.6,967.5,126.1
			L967.5,126.1z M952.6,133.5c-0.2,0-0.4,0-0.5,0c-0.1,0-0.2,0.2-0.2,0.4c0,0,0.1,0.2,0.2,0.2c0.4,0,0.7,0,1.1,0
			c0.1,0,0.2-0.2,0.2-0.4c0,0-0.1-0.2-0.2-0.2C952.9,133.5,952.8,133.5,952.6,133.5L952.6,133.5z M905.3,129.6c0.2,0,0.4,0,0.5,0
			c0.1,0,0.2-0.2,0.2-0.4c0,0-0.1-0.2-0.2-0.2c-0.4,0-0.7,0-1.1,0c-0.1,0-0.2,0.2-0.2,0.4c0,0,0.1,0.2,0.2,0.2
			C904.9,129.6,905.1,129.6,905.3,129.6L905.3,129.6z M880,127.3c-0.3,0-0.4,0-0.5,0c-0.2,0.1-0.3,0.2-0.4,0.3
			c0.1,0.1,0.3,0.3,0.4,0.3c0.4,0,0.7,0,1.1-0.1c0.1,0,0.1-0.1,0.2-0.2c-0.1-0.1-0.1-0.2-0.2-0.2C880.4,127.4,880.1,127.4,880,127.3
			L880,127.3z M959.9,115.5c0.2,0,0.4,0,0.5,0c0.1,0,0.2-0.2,0.2-0.4c0,0-0.1-0.2-0.2-0.2c-0.4,0-0.7,0-1.1,0
			c-0.1,0-0.2,0.2-0.2,0.4c0,0,0.1,0.2,0.2,0.2C959.5,115.5,959.7,115.5,959.9,115.5L959.9,115.5z M925.8,115.5l-0.5,0.3
			c0.1,0.1,0.1,0.1,0.2,0.2c0.1,0.1,0.2,0.3,0.4,0.4c0.1,0.1,0.2,0.1,0.4,0.2c0.1-0.2,0.2-0.5,0.2-0.7S926,115.6,925.8,115.5
			L925.8,115.5z M982.4,126.2c-0.3,0-0.4,0-0.5,0c-0.2,0.1-0.3,0.2-0.4,0.3c0.1,0.1,0.3,0.3,0.4,0.3c0.4,0,0.7,0,1.1-0.1
			c0.1,0,0.1-0.1,0.2-0.2c-0.1-0.1-0.1-0.2-0.2-0.2C982.8,126.3,982.5,126.2,982.4,126.2L982.4,126.2z M769.1,139.1
			c-0.3,0.1-0.5,0.2-0.7,0.3c0,0.1,0,0.1,0,0.2c0.5,0.3,1,0.3,1.5,0c0-0.1,0-0.1,0-0.2C769.6,139.3,769.4,139.2,769.1,139.1z
			 M836.6,138.6c0.2,0,0.4,0,0.5,0c0.1,0,0.2-0.2,0.2-0.4c0,0-0.1-0.2-0.2-0.2c-0.4,0-0.7,0-1.1,0c-0.1,0-0.2,0.2-0.2,0.4
			c0,0,0.1,0.2,0.2,0.2C836.3,138.6,836.4,138.6,836.6,138.6L836.6,138.6z M850.9,112.7c0.2-0.1,0.4-0.2,0.6-0.2c0,0,0-0.1,0-0.2
			c-0.2-0.3-0.8-0.3-0.9,0C850.5,112.4,850.8,112.6,850.9,112.7z M907.7,115.6c0.2-0.1,0.4-0.2,0.5-0.2c0,0,0-0.1,0-0.2
			c-0.2-0.3-0.8-0.3-0.9,0C907.3,115.3,907.6,115.4,907.7,115.6z M957.2,115l-0.4,0.3c0.1,0.1,0.3,0.3,0.4,0.3
			c0.2-0.1,0.5-0.1,0.7-0.3c-0.1-0.1-0.1-0.2-0.2-0.2C957.5,115,957.4,115,957.2,115L957.2,115z M882.3,127.8
			c0.1-0.1,0.2-0.1,0.2-0.2s-0.1-0.2-0.2-0.2c-0.2-0.1-0.3-0.1-0.5-0.1c-0.2,0.1-0.3,0.2-0.4,0.3C881.6,127.9,882,128,882.3,127.8
			L882.3,127.8z M902.7,129.6c0.2-0.1,0.4-0.2,0.5-0.2c0,0,0-0.1,0-0.2c-0.2-0.3-0.8-0.3-0.9,0C902.3,129.3,902.6,129.5,902.7,129.6
			L902.7,129.6z M883.8,135.8l0.4-0.3c-0.2-0.1-0.5-0.2-0.7-0.3c-0.1,0-0.3,0.2-0.4,0.3c0.1,0.1,0.3,0.2,0.4,0.3
			C883.6,135.8,883.7,135.8,883.8,135.8L883.8,135.8z M799.7,138c-0.1,0.1-0.4,0.3-0.4,0.4c0.1,0.3,0.7,0.3,0.9,0c0,0,0-0.2,0-0.2
			C800.1,138.2,799.9,138.1,799.7,138z M691.7,139.1c-0.1,0.1-0.4,0.3-0.4,0.4c0.1,0.3,0.7,0.3,0.9,0c0,0,0-0.2,0-0.2
			C692.1,139.3,691.9,139.2,691.7,139.1L691.7,139.1z M735.4,140.2l0.2-0.2c-0.1-0.1-0.2-0.1-0.4-0.2c0,0-0.1,0.1-0.2,0.2
			L735.4,140.2z M689.8,139.2c-0.1,0.1-0.2,0.1-0.2,0.2c0,0.1,0.1,0.3,0.2,0.4c0.1-0.1,0.2-0.1,0.2-0.2
			C689.9,139.4,689.8,139.3,689.8,139.2L689.8,139.2z M874.9,138c-0.1,0.1-0.2,0.1-0.2,0.2c0,0.1,0.1,0.3,0.2,0.4
			c0.1-0.1,0.2-0.1,0.2-0.2C875,138.3,875,138.2,874.9,138z M796.2,138.1l-0.4,0.2c0.1,0.1,0.1,0.2,0.2,0.2c0.1,0,0.3-0.1,0.4-0.2
			L796.2,138.1z M885.7,135.9l-0.4,0.2c0.1,0.1,0.1,0.2,0.2,0.2c0.1,0,0.3-0.1,0.4-0.2L885.7,135.9z M949.4,135.6l-0.2-0.4
			c-0.1,0.1-0.2,0.1-0.2,0.2c0,0.1,0.1,0.3,0.2,0.4L949.4,135.6z M946.7,135.6l0.2,0.2c0.1-0.1,0.1-0.2,0.2-0.4c0,0-0.1-0.1-0.2-0.2
			L946.7,135.6z M986.4,135.1l0.2-0.2c-0.1-0.1-0.2-0.1-0.4-0.2c0,0-0.1,0.1-0.2,0.2L986.4,135.1z M900.3,134.6l0.2-0.2
			c-0.1-0.1-0.2-0.1-0.4-0.2c0,0-0.1,0.1-0.2,0.2L900.3,134.6z M846.6,132.8l0.2,0.2c0.1-0.1,0.1-0.2,0.2-0.4c0,0-0.1-0.1-0.2-0.2
			L846.6,132.8z M936.4,132.2l-0.2-0.4c-0.1,0.1-0.2,0.1-0.2,0.2c0,0.1,0.1,0.3,0.2,0.4L936.4,132.2z M922.7,131.3
			c-0.1,0.1-0.2,0.1-0.2,0.2c0,0.1,0.1,0.3,0.2,0.4c0.1-0.1,0.2-0.1,0.2-0.2C922.9,131.5,922.8,131.4,922.7,131.3L922.7,131.3z
			 M932.9,130.7c-0.1,0.1-0.2,0.1-0.2,0.2c0,0.1,0.1,0.3,0.2,0.4c0.1-0.1,0.2-0.1,0.2-0.2C933,131,932.9,130.8,932.9,130.7
			L932.9,130.7z M928.7,130.4l0.2,0.4c0.1-0.1,0.2-0.1,0.2-0.2c0-0.1-0.1-0.3-0.2-0.4L928.7,130.4z M926.3,130.4l-0.2-0.2
			c-0.1,0.1-0.1,0.2-0.2,0.4c0,0,0.1,0.1,0.2,0.2L926.3,130.4z M916.9,130l0.2,0.2c0.1-0.1,0.1-0.2,0.2-0.4c0,0-0.1-0.1-0.2-0.2
			L916.9,130z M990.4,129.5l0.2-0.2c-0.1-0.1-0.2-0.1-0.4-0.2c0,0-0.1,0.1-0.2,0.2L990.4,129.5z M912.9,129.3
			c-0.1-0.1-0.1-0.2-0.2-0.2c-0.1,0-0.3,0.1-0.4,0.2c0.1,0.1,0.1,0.2,0.2,0.2C912.7,129.4,912.8,129.4,912.9,129.3L912.9,129.3z
			 M988.2,128.3c-0.1-0.1-0.1-0.2-0.2-0.4c-0.1,0.1-0.2,0.1-0.2,0.2c0,0.1,0.1,0.3,0.2,0.4L988.2,128.3z M986,126.6l-0.2-0.4
			c-0.1,0.1-0.2,0.1-0.2,0.2c0,0.1,0.1,0.3,0.2,0.4L986,126.6z M984.8,126.6l-0.2-0.4c-0.1,0.1-0.2,0.1-0.2,0.2
			c0,0.1,0.1,0.3,0.2,0.4L984.8,126.6z M640.3,121.2l-0.4,0.2c0.1,0.1,0.1,0.2,0.2,0.2c0.1,0,0.3-0.1,0.4-0.2L640.3,121.2z
			 M954.9,121.1l0.2-0.2c-0.1-0.1-0.2-0.1-0.4-0.2c0,0-0.1,0.1-0.2,0.2L954.9,121.1z M953.3,120.8l-0.2-0.2
			c-0.1,0.1-0.1,0.2-0.2,0.4c0,0,0.1,0.1,0.2,0.2L953.3,120.8z M957.7,119.4l0.2-0.2c-0.1-0.1-0.2-0.1-0.4-0.2c0,0-0.1,0.1-0.2,0.2
			L957.7,119.4z M948.3,118l-0.2-0.2c-0.1,0.1-0.1,0.2-0.2,0.4c0,0,0.1,0.1,0.2,0.2L948.3,118z M922.7,115.5
			c-0.1,0.1-0.2,0.1-0.2,0.2c0,0.1,0.1,0.3,0.2,0.4c0.1-0.1,0.2-0.1,0.2-0.2C922.9,115.8,922.8,115.6,922.7,115.5L922.7,115.5z
			 M897.1,114.2l-0.2-0.4c-0.1,0.1-0.2,0.1-0.2,0.2c0,0.1,0.1,0.3,0.2,0.4L897.1,114.2z M870.2,113.1l0.2,0.2
			c0.1-0.1,0.1-0.2,0.2-0.4c0,0-0.1-0.1-0.2-0.2L870.2,113.1z M866.7,113.1l-0.2-0.4c-0.1,0.1-0.2,0.1-0.2,0.2
			c0,0.1,0.1,0.3,0.2,0.4L866.7,113.1z M848.7,112.5l-0.2-0.4c-0.1,0.1-0.2,0.1-0.2,0.2c0,0.1,0.1,0.3,0.2,0.4L848.7,112.5z"/>
		<path id="Path_661" class="st1" d="M939,140.8h-3.4c-0.5-0.8-1.3-0.5-2-0.6c-0.7,0-1.5,0-2.2,0c-0.2,0-0.3,0.1-0.5,0.2
			c-0.3,0.5-0.5,0.1-0.8-0.1c-0.4-0.1-0.9-0.2-1.3-0.1c-0.6,0-0.8-0.4-1.1-0.7c-0.2-0.2-0.2-0.4,0-0.4c1,0.2,1.8-0.8,2.8-0.7
			c0.8,0.1,1.3,0.9,2.3,0.6c0.7-0.1,1.5-0.1,2.2,0c1,1.1,2.3,0.5,3.4,0.5c0.7,0.1,1.4,0.3,2,0.6c0.6,0.1,1.3,0.1,2,0
			c0.1,0,0.2,0.1,0.2,0.2c0,0.1-0.1,0.4-0.2,0.4C941.3,140.9,940.2,140.8,939,140.8z"/>
		<path id="Path_662" class="st1" d="M985.9,137.5h2.5c1,1,2.3,0.5,3.4,0.5c0.8,0,1.2,0.7,1.9,0.8c0,0,0.1,0.1,0,0.2
			c0,0.1-0.1,0.2-0.2,0.2c-1-0.1-2,0.5-2.8-0.5c-0.7,0.1-1.5-0.3-2.1,0.4c-0.1,0.2-0.5,0.1-0.8,0.2c-0.9,0.1-1,0.3-0.5,1.2
			c0.1,0.2,0.3,0.4,0.1,0.4c-1,0.1-2,0.1-3,0.1c-0.1,0-0.2-0.3-0.2-0.4c-0.1-0.4,0-0.9,0.3-1.3c0.5-0.6,0.3-0.9-0.5-1
			c-0.3,0-0.5-0.1-0.8-0.1c-0.1,0-0.2-0.1-0.1-0.2c0-0.1,0.1-0.2,0.2-0.2C984.3,137.5,985.1,137.5,985.9,137.5L985.9,137.5z"/>
		<path id="Path_663" class="st1" d="M975.4,136.9c0.1-0.2,0.1-0.4,0.2-0.5c0.3-0.1,0.5-0.1,0.8-0.1c0.7,0.1,1.2,0.8,2,0.6
			c0.6-0.1,1.3-0.1,1.9,0c0.6,0,0.8,0.5,1.1,0.7c0.1,0,0.1,0.1,0.1,0.2c0,0.1-0.1,0.2-0.2,0.2c-0.7,0-1.3,0-1.9,0
			c-0.5,0-0.6,0.4-0.9,0.6c-0.1,0.1-0.1,0.2-0.2,0.4c0,0,0.1,0.2,0.2,0.2c0.6,0,1.1,0,1.7,0c0.6-0.1,0.8,0.3,1.1,0.6
			c0.1,0.1,0.1,0.1,0.2,0.2c-0.1,0.1-0.2,0.3-0.4,0.3c-0.7,0-1.3,0-2,0c-1.2-0.9-2.6-0.4-4-0.6c-0.2,0-0.4-0.2-0.5-0.4
			c0,0,0-0.1,0-0.1c0.4,0,0.7,0,1.1,0c0.2,0.1,0.5-0.1,0.6-0.3c0,0,0-0.1,0-0.1c0-0.5,0-0.9,0-1.4c-0.1-0.5-0.5-0.4-0.8-0.4
			C975.5,136.9,975.4,136.9,975.4,136.9z"/>
		<path id="Path_664" class="st1" d="M834,145.9c-2.4,0-4.9,0-7.3,0c-0.2,0-0.3-0.2-0.5-0.2c0.1-0.1,0.2-0.2,0.4-0.3
			c0.2-0.1,0.4,0,0.5-0.1c0.1,0,0.2-0.1,0.2-0.2s-0.1-0.2-0.2-0.2c-0.2-0.1-0.6-0.1-0.7-0.2c-0.1-0.2-0.2-0.5-0.1-0.7
			c0-0.1,0.3-0.3,0.4-0.2c0.6,0.2,1.1,0.5,1.7,0.7c0.1,0.1,0.1,0.3,0.1,0.5c0.2,0.5,0.5,0.6,1,0.3c0.2-0.1,0.3-0.5,0.6-0.1
			c0.3,0.4,0.7,0.5,1.1,0.1c0.3-0.3,0.7-0.5,0.9-0.2c0.4,0.5,1,0.4,1.5,0.5c2.7,0,5.4,0.1,8.1,0.1c0.1,0,0.2,0.1,0.2,0.2
			s-0.1,0.2-0.2,0.2c-1.1,0-2.2,0.1-3.3,0.1C837,145.9,835.5,145.9,834,145.9z"/>
		<path id="Path_665" class="st1" d="M1017.3,123.4c-0.7,0-1.5,0-2.2,0c-0.8,0.1-1.3-0.9-2.3-0.6c-0.7,0.1-1.5,0.1-2.2,0
			c-0.1,0-0.3-0.3-0.3-0.4c0-0.2,0.2-0.6,0.3-0.6c0.5-0.1,1.1,0.2,1.5-0.5c0.1,0,0.1-0.1,0.2-0.1c0.5,0.8,1.4,0.5,2,0.5
			c0.8,0,1.6,0.2,2.3,0.6c0.7,0.3,1.2,1,1.8,0c0.7-0.1,1.3-0.1,1.7,0.5c0.1,0.1,0.1,0.3,0.2,0.4c0,0-0.1,0.2-0.2,0.2
			C1019.1,123.4,1018.2,123.4,1017.3,123.4z"/>
		<path id="Path_666" class="st1" d="M730.3,142h2.8c1-1.1,2.3-0.3,3.4-0.6c0.5-0.1,0.8,0.3,1.2,0.5c0.2,0.1,0.4,0,0.3,0.3
			c0,0.1-0.1,0.2-0.2,0.2c-0.5-0.1-1.1,0-1.6,0.1c-0.8,0.4-1.6,1-2.4,0l-2.2,0c-0.9,0.9-2.1,0.4-3.1,0.6c-0.6,0.1-0.7-0.5-1.1-0.7
			c0-0.1,0-0.1,0-0.2c0-0.1,0.1-0.2,0.2-0.2C728.4,142,729.3,142,730.3,142z"/>
		<path id="Path_667" class="st1" d="M906.4,142.5c-0.5-0.1-1.3,0.3-1.8-0.2c-0.6-0.5-1.2-0.3-1.8-0.4c-1.5,0-3,0-4.5,0
			c-0.5,0.1-0.9,0.1-1.4,0c-0.4-0.2-0.6-0.6-1.2-0.6c-0.1,0-0.2-0.2-0.2-0.2c0.1-0.1,0.2-0.3,0.3-0.3c1,0,2.1,0,3.1,0
			c0.4,0,0.8,1,1.3,0.1c0.4,0.1,0.6,0.6,1.1,0.5c0.6-0.1,1.1-0.1,1.7,0h1.4c0.6-0.1,1.1-0.1,1.7,0c0.8,0.4,1.7,0.6,2.6,0.5
			c0.1,0,0.2,0.2,0.2,0.3c0,0-0.1,0.2-0.2,0.2C907.9,142.5,907.2,142.5,906.4,142.5z"/>
		<path id="Path_668" class="st1" d="M877.8,140.3c1.8,0,3.6,0,5.3,0c0.2,0,0.4,0.2,0.5,0.4c0,0.1,0,0.1,0,0.2c0,0.1,0,0.3,0,0.3
			c-0.2,0.1-0.5,0.2-0.7,0.3c-0.1,0-0.3-0.2-0.4-0.3c-0.2-0.1-0.6-0.3-0.7-0.2c-0.8,0.8-1.7,0.4-2.6,0.6c-0.3,0.1-0.5,0.2-0.7,0.4
			c-0.2,0.2-0.4,0.2-0.4,0c-0.1-0.6-0.2-1-1-0.9c-1.7,0.1-3.4,0-5,0c-0.1,0-0.2-0.1-0.2-0.2c0-0.1,0.1-0.2,0.1-0.2
			c0.6-0.1,1.3-0.1,1.9-0.1C875.2,140.3,876.5,140.3,877.8,140.3z"/>
		<path id="Path_669" class="st1" d="M952.6,142c-0.5,0-0.9,0-1.4,0c-0.4-0.1-0.8-0.5-1.2-0.5c-1.1-0.1-2.2,0-3.4,0
			c-0.5,0.1-0.9,0.1-1.4,0c-0.4-0.2-0.6-0.6-1.2-0.6c-0.1,0-0.2-0.2-0.2-0.2c0.1-0.1,0.2-0.3,0.3-0.3c1,0.1,2-0.3,2.9,0.5
			c1.3,0.1,2.6,0.1,3.9,0c1.3-0.2,2.2,0.7,3.4,0.7c0,0,0.1,0.1,0.1,0.2c0,0.1-0.1,0.2-0.2,0.2C953.7,141.9,953.2,141.9,952.6,142
			L952.6,142z"/>
		<path id="Path_670" class="st1" d="M1012.9,125.7c-0.4,0-0.7,0-1.1,0c-1.1,0.3-1.8-0.7-2.9-0.6c-1,0-2,0-3-0.1
			c-0.1,0-0.2-0.1-0.2-0.2c-0.1-0.3,0-0.4,0.3-0.3c0.8,0.3,1-0.7,1.7-0.6c0.6,0.1,0.8,0.7,1.4,0.6s1.3-0.3,1.8,0.4
			c0.6,0,1.3,0.1,1.9,0.1c0.7,0,1.3,0,2,0c0.2,0,0.3,0.2,0.5,0.2c-0.1,0.1-0.3,0.3-0.4,0.3C1014.2,125.7,1013.6,125.7,1012.9,125.7z
			"/>
		<path id="Path_671" class="st1" d="M1000.2,123.4c0.6,0.1,1.3-0.2,1.8,0.4c0.2,0.2,0.7,0.1,1,0.1c0.8,0,1.7,0.1,2.5,0.1
			c0.1,0,0.2,0.1,0.2,0.2c0.1,0.3-0.2,0.2-0.2,0.3c-0.6,0.8-1.5,0.5-2.3,0.5c-0.5-0.8-1.3-0.5-2-0.5c-0.6,0-1.1,0-1.7,0
			c-0.3,0-0.5-0.2-0.5-0.5c-0.1-0.3,0.1-0.5,0.4-0.6c0,0,0,0,0,0C999.7,123.4,999.9,123.4,1000.2,123.4z"/>
		<path id="Path_672" class="st1" d="M828.2,141.4c1.2,0,2.4,0,3.6,0c0.2,0,0.3,0.1,0.5,0.2c-0.1,0.1-0.1,0.3-0.2,0.4
			c-0.2,0.3-0.2,0.2-1,0.1c-0.4-0.1-0.7-0.1-1.1-0.1c-2.1,0-4.3,0-6.4,0c-0.1,0-0.2-0.2-0.2-0.2c0.1-0.1,0.2-0.3,0.3-0.3
			C825.3,141.4,826.8,141.4,828.2,141.4z"/>
		<path id="Path_673" class="st1" d="M1028.8,123.6c0,0.1,0,0.2-0.1,0.2c-0.5,0.4-1.3-0.2-1.7,0.6c-0.1-0.1-0.3-0.1-0.4-0.2
			c-0.9-0.6-2-0.9-3-0.8c-0.4,0-0.8,0-1.1,0c-0.1,0-0.2-0.2-0.2-0.4c0,0,0.1-0.2,0.2-0.2c1,0,2.1,0,3.1,0c0.6,0,0.8,0.7,1.5,0.6
			c0.6-0.1,1.1-0.1,1.7,0C1028.6,123.4,1028.7,123.6,1028.8,123.6z"/>
		<path id="Path_674" class="st1" d="M1028.8,134.9c0,0.1-0.1,0.2-0.1,0.2c-0.6,0.1-1.3,0.1-1.9,0.1c-1.6,0.1-1.8,0.1-2.5-0.3
			c-0.1-0.1-0.3-0.2-0.5-0.2c-0.3,0-0.5,0-0.5-0.4c0-0.1,0.3-0.2,0.5-0.2c0.9,0.1,1.9-0.4,2.6,0.6c0.7,0,1.5,0,2.2,0
			C1028.6,134.7,1028.7,134.8,1028.8,134.9z"/>
		<path id="Path_675" class="st1" d="M1008.3,121.2c0.4,0,0.7,0,1.1,0c0.2,0.1,0.3,0.2,0.3,0.4c0,0.2-0.2,0.7-0.3,0.7
			c-0.9,0.1-1.9,0-2.8,0c-0.1,0-0.3-0.3-0.3-0.4c0-0.2,0.2-0.7,0.3-0.7C1007.2,121.1,1007.7,121.1,1008.3,121.2z"/>
		<path id="Path_676" class="st1" d="M974.8,139.2c-0.6,0.1-1.3-0.3-1.8,0.4c-0.1,0.1-0.1,0.1-0.2,0.2c-0.6-0.9-1.5-0.5-2.2-0.6
			c-0.1,0-0.2-0.3-0.2-0.4c0.3-0.6,1.4-1.1,1.8-0.7c0.8,0.8,1.7,0.4,2.6,0.5L974.8,139.2z"/>
		<path id="Path_677" class="st1" d="M924.5,139.7c-0.5,0-0.9,0-1.4,0s-0.7-0.2-0.6-0.7c0-0.3,0.2-0.5,0.5-0.5c0,0,0,0,0.1,0
			c1.2-0.2,2.3,0.1,3.3,0.7c0,0,0,0.1,0,0.2c0,0.1-0.1,0.2-0.2,0.2C925.6,139.7,925,139.7,924.5,139.7z"/>
		<path id="Path_678" class="st1" d="M807.1,142c-0.8,0-1.7,0-2.5,0c-0.1,0-0.2-0.2-0.2-0.4c0,0,0.1-0.2,0.2-0.2c1.9,0,3.7,0,5.6,0
			c0.1,0,0.2,0.2,0.2,0.4c0,0-0.1,0.2-0.2,0.2C809.2,142,808.1,142,807.1,142z"/>
		<path id="Path_679" class="st1" d="M886.6,141.4c-0.5,0-1.1-0.1-1.6-0.1c-0.1,0-0.2-0.1-0.2-0.2c0-0.1,0.1-0.1,0.2-0.2
			c0.4-0.6,1.1-1,1.6-0.6c0.6,0.3,1.3,0.6,2,0.6c0.1,0,0.1,0.1,0.1,0.2c0,0.1-0.1,0.2-0.2,0.2C887.8,141.4,887.2,141.3,886.6,141.4
			L886.6,141.4z"/>
		<path id="Path_680" class="st1" d="M959.9,142.5c-0.6,0-1.1,0-1.7,0c-0.2-0.1-0.3-0.2-0.3-0.4c0-0.2,0.1-0.6,0.3-0.7
			c0.3-0.1,0.9-0.2,1.1,0c0.7,0.8,1.5,0.5,2.3,0.5c0.1,0,0.2,0.1,0.2,0.2c0,0.1-0.1,0.4-0.2,0.4C961,142.5,960.4,142.5,959.9,142.5z
			"/>
		<path id="Path_681" class="st1" d="M929.5,137.5c0.6,0,1.1,0,1.7,0c0.1,0,0.2,0.1,0.2,0.2c0,0.1-0.1,0.4-0.2,0.4
			c-1.3,0-2.6,0-3.9,0c-0.1,0-0.2-0.1-0.2-0.2c0-0.1,0.1-0.4,0.2-0.4C928,137.5,928.8,137.5,929.5,137.5z"/>
		<path id="Path_682" class="st1" d="M1017.6,126.2c-0.5,0-0.9,0-1.4,0c-0.1,0-0.2-0.2-0.2-0.4c0,0,0.1-0.2,0.2-0.2
			c1.1,0,2.2,0,3.3,0c0.1,0,0.2,0.2,0.2,0.4c0,0-0.1,0.2-0.2,0.2C1018.9,126.2,1018.2,126.2,1017.6,126.2z"/>
		<path id="Path_683" class="st1" d="M811.6,145.9c-0.5,0-0.9,0-1.4,0c-0.1,0-0.2-0.2-0.2-0.4c0,0,0.1-0.2,0.2-0.2
			c1.1,0,2.2,0,3.3,0c0.1,0,0.2,0.2,0.2,0.4c0,0-0.1,0.2-0.2,0.2C812.9,145.9,812.3,145.9,811.6,145.9z"/>
		<path id="Path_684" class="st1" d="M995.7,126.2c0.2,0,0.4,0,0.5,0c0.3,0,0.5,0.2,0.4,0.5c0,0.2-0.1,0.3-0.2,0.5
			c-0.1,0.1-0.3,0.1-0.5,0.1c-0.4-0.2-0.8-0.3-1.1-0.6c-0.2-0.1-0.3-0.2-0.4-0.3c0.1-0.1,0.3-0.2,0.4-0.3
			C995.2,126.2,995.5,126.2,995.7,126.2z"/>
		<path id="Path_685" class="st1" d="M685.6,140.3c-0.5-0.1-0.5,0.5-0.9,0.5c-0.3,0-0.5,0-0.7-0.2c-0.3-0.2-0.1-0.9,0.2-0.9
			c0.7,0.1,0.9-0.6,1.4-0.6V140.3z"/>
		<path id="Path_686" class="st1" d="M1000.4,126.2c-0.4,0-0.7,0-1.1,0c-0.1,0-0.2-0.2-0.2-0.3c0,0,0.1-0.2,0.2-0.2
			c0.4-0.1,1,0,1.3-0.2c0.5-0.6,0.7-0.1,1,0.2c0.1,0.1,0.2,0.2,0.2,0.4c0,0-0.1,0.2-0.2,0.2C1001.1,126.2,1000.8,126.2,1000.4,126.2
			z"/>
		<path id="Path_687" class="st1" d="M992,118.3c-0.4,0-0.7,0-1.1,0c-0.1,0-0.2-0.2-0.2-0.4c0,0,0.1-0.2,0.2-0.2c0.7,0,1.5,0,2.2,0
			c0.1,0,0.2,0.2,0.2,0.4c0,0-0.1,0.2-0.2,0.2C992.7,118.3,992.3,118.3,992,118.3z"/>
		<path id="Path_688" class="st1" d="M974.8,138.6c0-0.4,0-0.9,0-1.3c0-0.2,0.2-0.4,0.5-0.4c0,0,0.1,0,0.1,0
			c0.1,0.2,0.1,0.3,0.2,0.4c0.3,0.2,0.5,0.5,0.4,0.9c-0.1,0.4-0.5,0.4-0.9,0.4C975,138.6,974.9,138.6,974.8,138.6z"/>
		<path id="Path_689" class="st1" d="M1004,136.9c-0.3,0-0.6,0-0.8,0c-0.1,0-0.2-0.1-0.2-0.2c0-0.1,0.1-0.4,0.2-0.4
			c0.7,0,1.5,0,2.2,0c0.1,0,0.2,0.1,0.2,0.2c0,0.1-0.1,0.3-0.2,0.4C1005,136.9,1004.5,136.9,1004,136.9z"/>
		<path id="Path_690" class="st1" d="M1006,129.6c0.2,0,0.4,0,0.5,0c0.1,0,0.2,0.1,0.2,0.2c0,0.1-0.1,0.3-0.2,0.4
			c-0.4,0.1-0.9-0.2-1.3,0.2c-0.1,0.1-0.3,0.6-0.6,0.2c-0.1-0.2-0.1-0.3-0.1-0.5c0-0.3,0.3-0.4,0.6-0.4c0,0,0,0,0,0
			C1005.5,129.6,1005.8,129.6,1006,129.6z"/>
		<path id="Path_691" class="st1" d="M951.4,139.7c-0.2,0-0.4-0.1-0.6-0.1c-0.1,0-0.2-0.1-0.2-0.2c0-0.1,0.1-0.2,0.2-0.2
			c0.5,0,1.1-0.1,1.6-0.1c0.1,0,0.3,0.2,0.4,0.3c-0.1,0.1-0.3,0.2-0.4,0.3C952.1,139.7,951.7,139.7,951.4,139.7z"/>
		<path id="Path_692" class="st1" d="M683,140.9c-0.3,0-0.8,0-1.2-0.1c-0.1,0-0.2-0.2-0.2-0.2c0.2-0.3,0.4-0.5,0.7-0.7
			c0.1-0.1,0.4,0.2,0.5,0.3C683,140.3,683.5,140.4,683,140.9z"/>
		<path id="Path_693" class="st1" d="M1003.8,121.7c-0.2,0-0.4,0-0.5,0c-0.1,0-0.2-0.2-0.2-0.4c0,0,0.1-0.2,0.2-0.2
			c0.6,0,1.1,0,1.7,0c0.1,0,0.2,0.2,0.2,0.4c0,0-0.1,0.2-0.2,0.2C1004.5,121.7,1004.2,121.7,1003.8,121.7z"/>
		<path id="Path_694" class="st1" d="M850.7,145.9c-0.2,0-0.4,0-0.5,0c-0.1,0-0.2-0.1-0.2-0.2c0-0.1,0.1-0.3,0.2-0.4
			c0.4,0,0.7,0,1.1,0c0.1,0,0.2,0.1,0.2,0.2c0,0.1-0.1,0.3-0.2,0.4C851.1,145.9,850.9,145.9,850.7,145.9z"/>
		<path id="Path_695" class="st1" d="M843.4,146c-0.3-0.1-0.5-0.2-0.7-0.3c0-0.1,0-0.1,0-0.2c0.5-0.3,1-0.3,1.5,0c0,0.1,0,0.1,0,0.2
			C843.9,145.8,843.7,145.9,843.4,146z"/>
		<path id="Path_696" class="st1" d="M833.3,144.3c-0.3-0.1-0.5-0.2-0.7-0.3c0-0.1,0-0.1,0-0.2c0.5-0.3,1-0.3,1.5,0
			c0,0.1,0,0.1,0,0.2C833.8,144.1,833.5,144.2,833.3,144.3z"/>
		<path id="Path_697" class="st1" d="M993.9,126.5c0,0.2,0,0.4,0,0.5c0,0.1-0.2,0.2-0.4,0.2c0,0-0.2-0.1-0.2-0.2c0-0.4,0-0.7,0-1.1
			c0-0.1,0.2-0.2,0.4-0.2c0,0,0.2,0.1,0.2,0.2C993.9,126.1,993.9,126.3,993.9,126.5z"/>
		<path id="Path_698" class="st1" d="M912.6,142.5c-0.2,0-0.4,0-0.5,0c-0.1,0-0.2-0.2-0.2-0.4c0,0,0.1-0.2,0.2-0.2
			c0.4,0,0.7,0,1.1,0c0.1,0,0.2,0.2,0.2,0.4c0,0-0.1,0.2-0.2,0.2C913,142.5,912.8,142.5,912.6,142.5z"/>
		<path id="Path_699" class="st1" d="M798.4,141.4c0.2,0,0.4,0,0.5,0c0.1,0,0.2,0.1,0.2,0.2c0,0.1-0.1,0.3-0.2,0.4
			c-0.4,0-0.7,0-1.1,0c-0.1,0-0.2-0.1-0.2-0.2c0-0.1,0.1-0.3,0.2-0.4C798,141.4,798.2,141.4,798.4,141.4z"/>
		<path id="Path_700" class="st1" d="M789.4,142c-0.3-0.1-0.5-0.2-0.7-0.3c0-0.1,0-0.1,0-0.2c0.5-0.3,1-0.3,1.5,0c0,0.1,0,0.1,0,0.2
			C789.9,141.9,789.6,141.9,789.4,142z"/>
		<path id="Path_701" class="st1" d="M938.5,138.6c-0.2,0-0.4,0-0.5,0c-0.1,0-0.2-0.1-0.2-0.2c0-0.1,0.1-0.3,0.2-0.4
			c0.4,0,0.7,0,1.1,0c0.1,0,0.2,0.1,0.2,0.2c0,0.1-0.1,0.3-0.2,0.4C938.8,138.6,938.7,138.6,938.5,138.6z"/>
		<path id="Path_702" class="st1" d="M919.9,137.5c-0.2,0-0.4,0-0.5,0c-0.1,0-0.2-0.2-0.2-0.4c0,0,0.1-0.2,0.2-0.2
			c0.4,0,0.7,0,1.1,0c0.1,0,0.2,0.2,0.2,0.4c0,0-0.1,0.2-0.2,0.2C920.3,137.5,920.1,137.5,919.9,137.5z"/>
		<path id="Path_703" class="st1" d="M1000.1,127.3c0,0.5-0.3,0.6-0.7,0.6c-0.2,0-0.3-0.2-0.4-0.2c0-0.1,0.1-0.1,0.2-0.2
			c0.1-0.1,0.2-0.3,0.4-0.4c0.1-0.1,0.2-0.1,0.4-0.2L1000.1,127.3z"/>
		<path id="Path_704" class="st1" d="M1021.7,126.5c-0.3,0.1-0.6,0.2-1,0.3c-0.1,0-0.3-0.2-0.4-0.3c0.1-0.1,0.3-0.3,0.4-0.3
			C1021.1,126.3,1021.4,126.4,1021.7,126.5z"/>
		<path id="Path_705" class="st1" d="M1001.3,129l0.5,0.3c-0.1,0.1-0.3,0.2-0.4,0.3c-0.2,0-0.3,0-0.5-0.1c-0.1,0-0.1-0.1-0.2-0.2
			L1001.3,129z"/>
		<path id="Path_706" class="st1" d="M1009.2,130.8l-0.6-0.3c0.2-0.1,0.5-0.2,0.7-0.3c0.1,0,0.3,0.2,0.4,0.3L1009.2,130.8z"/>
		<path id="Path_707" class="st1" d="M991.6,137.3c-0.2,0.3-0.6,0.3-0.9,0.1c0,0,0,0-0.1-0.1c0-0.1,0-0.1,0-0.2
			c0.2-0.3,0.6-0.3,0.9-0.1c0,0,0,0,0.1,0.1C991.6,137.1,991.6,137.2,991.6,137.3z"/>
		<path id="Path_708" class="st1" d="M968.3,138.6c-0.3-0.2-0.4-0.6-0.3-0.9c0-0.1,0.2-0.2,0.2-0.2c0.1,0.1,0.3,0.2,0.3,0.3
			c0,0.3,0,0.5,0,0.8C968.5,138.6,968.4,138.6,968.3,138.6z"/>
		<path id="Path_709" class="st1" d="M954.8,139.4c-0.3,0.1-0.6,0.2-0.9,0.3c-0.1,0-0.3-0.2-0.4-0.3c0.1-0.1,0.3-0.3,0.4-0.3
			C954.2,139.2,954.5,139.3,954.8,139.4z"/>
		<path id="Path_710" class="st1" d="M679.8,140.7c-0.2,0.3-0.6,0.3-0.9,0.1c0,0,0,0-0.1-0.1c0-0.1,0-0.1,0-0.2
			c0.2-0.3,0.6-0.3,0.9-0.1c0,0,0,0,0.1,0.1C679.8,140.5,679.8,140.6,679.8,140.7z"/>
		<path id="Path_711" class="st1" d="M821.8,141.4l0.5,0.3c-0.1,0.1-0.3,0.3-0.4,0.3c-0.2-0.1-0.5-0.1-0.7-0.3L821.8,141.4z"/>
		<path id="Path_712" class="st1" d="M726.2,142l0.4,0.2c-0.2,0.1-0.4,0.3-0.6,0.3c-0.2,0-0.6,0.3-0.5-0.2c0-0.1,0.2-0.2,0.4-0.3
			C726,141.9,726.1,142,726.2,142z"/>
		<path id="Path_713" class="st1" d="M723.1,142.5l0.7,0.3c-0.2,0.1-0.5,0.2-0.7,0.3c-0.1,0-0.3-0.2-0.4-0.3L723.1,142.5z"/>
		<path id="Path_714" class="st1" d="M823.4,145.5l-0.3,0.4c-0.1-0.1-0.3-0.3-0.3-0.4c0.1-0.2,0.1-0.5,0.3-0.7
			c0.1,0.1,0.2,0.1,0.2,0.2C823.4,145.1,823.4,145.3,823.4,145.5z"/>
		<path id="Path_715" class="st1" d="M848.7,145.3c0.2,0.1,0.4,0.2,0.5,0.2c0,0,0,0.1,0,0.2c-0.2,0.3-0.8,0.3-0.9,0
			C848.3,145.6,848.5,145.4,848.7,145.3z"/>
		<path id="Path_716" class="st1" d="M821.5,144.1l-0.4-0.2c0.1-0.1,0.1-0.2,0.2-0.2c0.1,0,0.3,0.1,0.4,0.2L821.5,144.1z"/>
		<path id="Path_717" class="st1" d="M918,142.9l0.2-0.4c0.1,0.1,0.2,0.1,0.2,0.2c0,0.1-0.1,0.3-0.2,0.4L918,142.9z"/>
		<path id="Path_718" class="st1" d="M725.5,142.8c-0.1,0.1-0.3,0.3-0.3,0.2c-0.3-0.2-0.1-0.4,0.1-0.5c0.1,0,0.2,0,0.2,0
			C725.5,142.6,725.5,142.7,725.5,142.8z"/>
		<path id="Path_719" class="st1" d="M803,141.9l-0.4-0.2c0.1-0.1,0.1-0.2,0.2-0.2c0.1,0,0.3,0.1,0.4,0.2L803,141.9z"/>
		<path id="Path_720" class="st1" d="M990.3,140.9l0.2,0.2c-0.1,0.1-0.2,0.1-0.4,0.2c0,0-0.1-0.1-0.2-0.2L990.3,140.9z"/>
		<path id="Path_721" class="st1" d="M969.1,138.9c-0.1,0.1-0.2,0.2-0.2,0.2c-0.1-0.1-0.2-0.2-0.3-0.3c-0.1-0.1-0.1-0.2,0-0.2
			c0.1-0.1,0.2-0.1,0.2,0C968.9,138.7,969,138.8,969.1,138.9z"/>
		<path id="Path_722" class="st1" d="M1013.3,137.5c0.1,0.1,0.1,0.2,0.2,0.4c0,0-0.1,0.1-0.2,0.2c-0.1-0.1-0.1-0.2-0.2-0.4
			C1013.1,137.6,1013.3,137.5,1013.3,137.5z"/>
		<path id="Path_723" class="st1" d="M916.2,136.7l-0.2,0.2c-0.1-0.1-0.1-0.2-0.2-0.4c0,0,0.1-0.1,0.2-0.2L916.2,136.7z"/>
		<path id="Path_724" class="st1" d="M990.5,132.1c-0.1,0.1-0.3,0.3-0.3,0.2c-0.3-0.2-0.1-0.4,0.1-0.5c0.1,0,0.2,0,0.2,0
			C990.6,131.9,990.5,132,990.5,132.1z"/>
		<path id="Path_725" class="st1" d="M1037.9,128.8l0.2-0.4c0.1,0.1,0.2,0.1,0.2,0.2c0,0.1-0.1,0.3-0.2,0.4L1037.9,128.8z"/>
		<path id="Path_726" class="st1" d="M1039.3,125.2l0.2,0.2c-0.1,0.1-0.2,0.1-0.4,0.2c0,0-0.1-0.1-0.2-0.2L1039.3,125.2z"/>
		<path id="Path_727" class="st1" d="M1035.1,124.7l0.2-0.2c0.1,0.1,0.1,0.2,0.2,0.4c0,0-0.1,0.1-0.2,0.2
			C1035.2,125,1035.1,124.8,1035.1,124.7z"/>
		<path id="Path_728" class="st1" d="M975.8,116.4l-0.2,0.2c-0.1-0.1-0.1-0.2-0.2-0.4c0,0,0.1-0.1,0.2-0.2L975.8,116.4z"/>
		<path id="Path_729" class="st1" d="M970.1,115.6l0.2,0.2c-0.1,0.1-0.2,0.1-0.4,0.2c0,0-0.1-0.1-0.2-0.2L970.1,115.6z"/>
		<path id="Path_730" class="st1" d="M849.9,108.5c-0.1,0.1-0.2,0.1-0.4,0.2c0,0-0.1-0.1-0.2-0.2c0.1-0.1,0.2-0.1,0.4-0.2
			C849.7,108.3,849.8,108.4,849.9,108.5z"/>
		<path id="Path_731" class="st1" d="M829.7,107.8l0.2-0.2c0.1,0.1,0.1,0.2,0.2,0.4c0,0-0.1,0.1-0.2,0.2L829.7,107.8z"/>
		<path id="Path_732" class="st1" d="M969.2,122.6c-0.1,0.1-0.2,0.1-0.4,0.2c0,0-0.1-0.1-0.2-0.2c0.1-0.1,0.2-0.1,0.4-0.2
			C969,122.4,969.1,122.5,969.2,122.6z"/>
		<path id="Path_733" class="st1" d="M966.3,118.7l-0.2,0.2c-0.1-0.1-0.1-0.2-0.2-0.4c0,0,0.1-0.1,0.2-0.2L966.3,118.7z"/>
	</g>
</g>
</svg>
