<?xml version="1.0" encoding="utf-8"?>
<!-- Generator: Adobe Illustrator 24.0.3, SVG Export Plug-In . SVG Version: 6.00 Build 0)  -->
<svg version="1.1" xmlns="http://www.w3.org/2000/svg" xmlns:xlink="http://www.w3.org/1999/xlink" x="0px" y="0px"
	 viewBox="0 0 417.92 208.06" style="enable-background:new 0 0 417.92 208.06;" xml:space="preserve">
<style type="text/css">
	.st0{fill:none;}
	.st1{fill:#D5D8CB;}
	.st2{fill:#E5DCD3;}
	.st3{opacity:0.1;}
	.st4{fill:#4D4848;}
	.st5{fill:#AA884B;}
	.st6{fill:#CFD6CE;}
	.st7{fill:#4C4948;}
	.st8{fill:#969F8A;}
	.st9{fill:#8A9979;}
	.st10{fill:#D1CABD;}
	.st11{fill:#8F583D;}
	.st12{fill:#AA6141;}
	.st13{fill:#F4EFDF;}
	.st14{fill:#E2D3C0;}
	.st15{fill:#EDE0D1;}
	.st16{fill:#B5B5A1;}
	.st17{fill:#BCBCA9;}
	.st18{fill:#CD9F83;}
	.st19{fill:#EFEFEA;}
	.st20{fill:#FFFFFF;}
	.st21{fill:#E9E9E5;}
	.st22{fill:#848B81;}
	.st23{fill:#DAD0C8;}
	.st24{fill:#E0D7CF;}
	.st25{fill:#D0D0C6;}
	.st26{fill:#DDD3CC;}
	.st27{fill:#CDCDC2;}
	.st28{fill:#868D83;}
	.st29{fill:#7B7B7B;}
	.st30{fill:#888888;}
	.st31{fill:#9D9C9C;}
	.st32{fill:#888F85;}
	.st33{fill:#8B9288;}
	.st34{fill:#D6D6CE;}
	.st35{fill:#D3D3C9;}
	.st36{fill:#506761;}
	.st37{fill:#A49263;}
	.st38{fill:#F3EFE4;}
	.st39{fill:#CCD8CA;}
	.st40{fill:#262628;}
	.st41{clip-path:url(#SVGID_12_);}
	.st42{opacity:0.61;clip-path:url(#SVGID_14_);}
	.st43{opacity:0.61;clip-path:url(#SVGID_24_);}
	.st44{clip-path:url(#SVGID_26_);}
	.st45{fill:#506760;}
	.st46{fill:#95A57A;}
	.st47{fill:#D4D8CB;}
	.st48{fill:#9EA484;}
	.st49{fill:#949F89;}
	.st50{fill:#9CA78A;}
	.st51{fill:#4E4A49;}
	.st52{opacity:0.2;}
	.st53{clip-path:url(#SVGID_30_);}
	.st54{fill:#3D3939;}
	.st55{fill:none;stroke:#3D3939;stroke-width:2;stroke-linecap:round;stroke-miterlimit:10;}
	.st56{fill:#FFFFFF;stroke:#3D3939;stroke-linecap:round;stroke-miterlimit:10;}
	.st57{fill:none;stroke:#3D3939;stroke-linecap:round;stroke-miterlimit:10;}
	.st58{fill:#2D2D2C;}
</style>
<g id="Layer_1">
	<g>
		<path class="st46" d="M142.81,59.36c1.11,1.68-1.14,5.58-3.21,8.63c-14.14,20.86-24.83,43.89-32.96,67.71
			c-4.08,11.97-7.52,24.15-10.47,36.45c-1.64,6.83-4.65,36.3-12.54,28.32c-4.05-4.09,8.38-48.74,15.4-69.91
			c7.75-23.36,17.83-45.95,30.09-67.29C132.46,57.48,140.72,56.18,142.81,59.36z"/>
		<path class="st46" d="M132.69,8.01c-8.93,1.47-17.77,3.67-26.45,6.24C71.03,24.66,36,42.81,16.67,74.02
			C9.5,85.6,4.68,99.59,7.93,112.81c0.59,2.39,1.57,4.89,3.68,6.15c2.11,1.26,5.52,0.38,5.91-2.04c0.25-1.53-0.72-2.95-1.42-4.33
			c-2.89-5.69-1.62-12.59,0.53-18.6c8.94-25.05,31.05-43.2,54.52-55.72c18.96-10.11,39.47-17.41,60.65-21.06
			c19.84-3.42,40.88-3.5,59.41,4.38c9.53,4.05,19.03,11.57,19.76,21.9c0.22,3.17-0.42,6.36-1.47,9.37
			c-6.81,19.45-28.04,31.15-45.75,38.9c-21.51,9.42-44.13,16.28-64.93,27.3c-4.75,2.51-9.44,5.33-13.01,9.35
			c-3.57,4.01-5.89,9.42-5.12,14.74c0.76,5.24,4.4,9.69,8.72,12.74c10.4,7.32,24.58,7.47,36.58,3.23s22.22-12.29,31.85-20.6
			c1.43-1.24,3.01-2.97,2.4-4.77c-0.51-1.5-2.41-2.14-3.96-1.78s-2.81,1.44-4.01,2.48c-7.63,6.58-15.67,12.92-25,16.73
			c-9.32,3.82-20.17,4.87-29.4,0.84c-4.45-1.94-8.85-6.07-8.01-10.86c0.29-1.68,1.22-3.19,2.28-4.53
			c3.98-5.05,9.89-8.16,15.73-10.85c16.91-7.78,34.76-13.32,51.92-20.54s33.93-16.36,46.59-30.01c5.48-5.91,10.19-12.73,12.52-20.44
			c2.34-7.72,2.11-16.42-1.78-23.48c-3.29-5.98-8.88-10.36-14.79-13.77c-14.28-8.24-31.02-11.61-47.5-11.51
			C147.41,6.08,140.02,6.8,132.69,8.01z M137.06,16.3c-0.12,0.02-0.24,0.03-0.37,0.05C136.81,16.33,136.94,16.32,137.06,16.3
			L137.06,16.3L137.06,16.3z M146.97,147.23c-0.07,0.06-0.15,0.11-0.22,0.17C146.82,147.34,146.89,147.29,146.97,147.23
			L146.97,147.23L146.97,147.23z M142.78,142.14c0.07-0.06,0.15-0.11,0.22-0.17c0.09-0.07,0.18-0.14,0.27-0.21
			c0,0,0.01-0.01,0.01-0.01C143.12,141.88,142.95,142.01,142.78,142.14L142.78,142.14L142.78,142.14z M143.33,141.72
			c-0.01,0.01-0.02,0.01-0.03,0.02c0.05-0.04,0.1-0.08,0.16-0.12C143.41,141.66,143.37,141.69,143.33,141.72L143.33,141.72
			L143.33,141.72z"/>
		<path class="st46" d="M223.24,81.28c0.09,0.06,0.18,0.13,0.26,0.2C223.41,81.41,223.32,81.34,223.24,81.28L223.24,81.28
			L223.24,81.28z"/>
		<path class="st46" d="M224.02,81.39c-0.03,0.01-0.06,0.03-0.09,0.04C223.96,81.41,223.99,81.4,224.02,81.39L224.02,81.39
			L224.02,81.39z"/>
		<path class="st46" d="M223.96,81.59c0.03,0,0.06,0.01,0.08,0.01C224.01,81.6,223.98,81.6,223.96,81.59L223.96,81.59L223.96,81.59z
			"/>
		<path class="st46" d="M223.77,81.64c0.11,0.04,0.21,0.08,0.32,0.13C223.98,81.72,223.88,81.68,223.77,81.64L223.77,81.64
			L223.77,81.64z"/>
		<path class="st46" d="M223.43,81.64c-0.06,0.02-0.11,0.05-0.17,0.07C223.31,81.68,223.37,81.66,223.43,81.64L223.43,81.64
			L223.43,81.64z"/>
		<path class="st46" d="M223.88,81.88c0.02,0.03,0.05,0.06,0.07,0.09C223.93,81.94,223.9,81.91,223.88,81.88L223.88,81.88
			L223.88,81.88z"/>
		<path class="st46" d="M223.86,81.97c0.04,0.08,0.07,0.16,0.11,0.24c0,0.01,0,0.01,0,0.02C223.93,82.14,223.89,82.05,223.86,81.97
			L223.86,81.97L223.86,81.97z"/>
		<path class="st46" d="M223.96,82.21c0.02,0.05,0.04,0.09,0.05,0.14c-0.02-0.04-0.03-0.08-0.05-0.12
			C223.96,82.22,223.96,82.21,223.96,82.21L223.96,82.21L223.96,82.21z"/>
		<path class="st46" d="M163.29,125.49c-0.1,0.01-0.19,0.03-0.29,0.04C163.1,125.51,163.19,125.5,163.29,125.49L163.29,125.49
			L163.29,125.49z"/>
		<path class="st46" d="M161.84,125.49c0.11,0.01,0.22,0.03,0.33,0.04C162.06,125.52,161.95,125.5,161.84,125.49L161.84,125.49
			L161.84,125.49z"/>
		<path class="st46" d="M162.51,125.66c-0.06,0.03-0.12,0.05-0.19,0.08C162.38,125.71,162.45,125.69,162.51,125.66L162.51,125.66
			L162.51,125.66z"/>
		<path class="st46" d="M204.32,143.13c-0.18,0.02-0.37,0.05-0.55,0.07c-0.03,0-0.06,0.01-0.09,0.01c0,0,0,0,0,0
			C203.89,143.19,204.1,143.16,204.32,143.13L204.32,143.13L204.32,143.13z"/>
		<path class="st46" d="M203.24,143.28C203.24,143.28,203.24,143.28,203.24,143.28c-0.02,0-0.04,0.01-0.06,0.01
			C203.2,143.28,203.22,143.28,203.24,143.28L203.24,143.28L203.24,143.28z"/>
		<path class="st46" d="M203.06,143.42c-0.04,0.03-0.07,0.06-0.11,0.08C202.99,143.47,203.02,143.44,203.06,143.42L203.06,143.42
			L203.06,143.42z"/>
		<path class="st51" d="M190.7,156.92c0.03,0.01,0.05,0.02,0.08,0.03C190.75,156.94,190.72,156.93,190.7,156.92L190.7,156.92
			L190.7,156.92z"/>
		<path class="st51" d="M190.75,157.09c0.1,0.01,0.2,0.03,0.31,0.04c0,0,0,0,0,0C190.95,157.12,190.85,157.1,190.75,157.09
			L190.75,157.09L190.75,157.09z"/>
		<path class="st51" d="M217.47,157.35c0.04,0.03,0.08,0.06,0.12,0.09c0,0-0.01,0-0.01,0C217.54,157.42,217.51,157.39,217.47,157.35
			L217.47,157.35L217.47,157.35z"/>
		<path class="st51" d="M150.99,158.26c0.03,0.02,0.05,0.04,0.08,0.06C151.04,158.3,151.01,158.28,150.99,158.26L150.99,158.26
			L150.99,158.26z"/>
		<path class="st51" d="M150.92,158.41c0.15,0.06,0.29,0.12,0.43,0.18C151.21,158.54,151.07,158.48,150.92,158.41L150.92,158.41
			L150.92,158.41z"/>
		<path class="st51" d="M150.86,158.6c0.15,0.02,0.3,0.04,0.45,0.06C151.16,158.65,151.01,158.63,150.86,158.6L150.86,158.6
			L150.86,158.6z"/>
		<path class="st46" d="M264.7,114.18c-0.76-0.49-1.76-0.69-2.68-0.65c-1.47,0.07-2.88,0.59-4.34,0.7
			c-1.41,0.11-2.83-0.17-4.25-0.17c-1.42,0-2.94,0.35-3.87,1.42c-1.83,2.14,0.53,4.98,2.48,6c2.16,1.13,4.57,0.21,6.71-0.46
			c1.88-0.59,4.29-0.79,5.85-2.08c1.04-0.86,1.65-2.36,1.12-3.6C265.51,114.87,265.15,114.47,264.7,114.18z"/>
		<g>
			<path class="st46" d="M410.84,152.41c-0.48-1.73-1.93-3.3-3.71-3.71c-1.44-0.33-2.94-0.41-4.41-0.47
				c-0.87-0.03-1.75-0.04-2.62-0.04c-0.87,0-1.74,0-2.6,0c-1,0-2,0-3,0c-23.6-0.09-47.65,2.72-71.19,4.33
				c-2.08,0.14-4.16,0.23-6.23,0.42c-2.35,0.22-4.7,0.44-7.05,0.65c-4.6,0.43-11.53,1.86-15.85-0.37c-2.93-1.52-2.59-8.45-5.3-10.62
				c-0.42-0.43-0.91-0.76-1.46-1c-0.51-0.32-1.05-0.51-1.63-0.58c-0.59-0.14-1.19-0.2-1.79-0.18c-0.64,0.04-1.28,0.11-1.91,0.22
				c-5.35,0.86-10.02,4.39-14.79,6.85c-2.25,1.16-8.75,5.22-11.25,3.37c-1.66-1.23,2.2-9.46,2.74-14.26
				c0.31-2.78-1.16-4.88-4.05-4.83c-3.16,0.06-5.18,2.68-7.15,4.77c-2.11,2.23-4.2,4.46-6.36,6.65
				c-4.77,4.84-11.95,11.61-17.77,15.1c-1.21,0.72-3.28,2.24-4.04,1.48c-1.23-1.22,1.53-5.75,1.93-6.65
				c1.1-2.47,2.28-4.89,3.55-7.27c1.39-2.61,2.96-5.12,4.4-7.69c1.06-1.89,2.46-4.02,1.83-6.26c-0.3-1.07-1.18-1.97-2.25-2.28
				c-0.95-0.27-1.84-0.09-2.71,0.32c-0.8,0.38-1.56,0.84-2.37,1.23c-6.77,3.23-13.15,5.77-20.58,6.97c-0.7,0.12-1.34,0.37-1.99,0.65
				c-0.71,0.31-1.35,1.03-1.66,1.73c-0.33,0.74-0.41,1.5-0.47,2.31c-0.05,0.69-0.07,1.38-0.14,2.07c-0.74,4.19-2.15,8.43-5.65,11.12
				c-1.68,1.29-3.02,0.32-3.14-1.63c-0.27-4.19,1.28-8.16,2.41-12.13c0.36-1.25,0.71-2.49,1.08-3.73c0.27-0.22,0.53-0.45,0.8-0.68
				c2.48-2.13,4.93-4.31,7.1-6.76c8.62-9.74,18.26-20.84,23.35-33.06c2.23-5.35,5.02-12.26,3.99-18.15
				c-0.68-3.89-5.09-5.8-8.52-4.29c-9.51,4.19-17.57,14.29-23.1,22.75c-7.58,11.61-13.18,25.14-15.53,38.82
				c-0.05,0.27-0.09,0.53-0.14,0.8c-0.23,0.1-0.45,0.21-0.68,0.31c-1.7,0.65-3.42,1.13-5.21,1.44c-1.01,0.1-2.02,0.15-3.03,0.16
				c-1,0.01-2.02-0.11-3.02-0.24c0.66-2.75,1.09-5.56,1.22-8.37c0.09-1.89-0.19-3.83-0.53-5.68c-0.33-1.8-1.14-3.49-2.27-4.91
				c-1.49-1.87-3.9-2.97-6.29-2.87c-3.76,0.16-6.38,3.2-8.22,6.16c-0.39,0.63-0.69,1.31-0.99,1.98c-0.47,1.06-0.88,2.14-1.22,3.25
				c-0.48,1.54-0.7,3.19-0.73,4.81c-1.58,2.5-3.19,4.99-4.68,7.55c-1.01,1.73-2,3.49-2.58,5.42c-0.44,1.46-0.72,2.94-0.94,4.44
				c-0.01,0.06-0.02,0.12-0.03,0.18c-0.02,0.11-0.03,0.22-0.04,0.34c-0.02,0.17-0.05,0.35-0.07,0.52c-0.01,0.09-0.02,0.18-0.03,0.27
				c-0.08,0.73-0.15,1.46-0.18,2.21c-0.06,1.28,0.14,2.57,0.4,3.82c0.15,0.7,0.51,1.36,0.82,2.01c0.26,0.55,0.79,1.24,1.18,1.66
				c0.55,0.59,1.15,1.13,1.82,1.59c0.93,0.63,2.01,1.07,3.11,1.28c0.65,0.12,1.27,0.18,1.92,0.15c0.99-0.04,1.81-0.34,2.71-0.73
				c1.92-0.84,3.43-2.47,4.74-4.05c1.22-1.48,2.33-3.05,3.41-4.63c0.9-1.32,1.75-2.67,2.52-4.07c0.48-0.88,0.95-1.77,1.39-2.66
				c3.46,0.18,6.94-0.01,10.32-0.81c1.38-0.33,2.71-0.8,4.02-1.34c-0.02,0.51-0.03,1.01-0.03,1.52c0.03,7.06,4.14,18.78,13.6,13.91
				c6.22-3.2,8.79-10.01,9.61-16.55c0.08-0.64,0.1-1.28,0.1-1.93c0-0.43-0.04-0.85-0.06-1.28c0.02,0,0.03-0.01,0.05-0.01
				c1.98-0.18,3.96-0.26,5.91-0.69c1.91-0.42,3.74-1.1,5.56-1.8c0.98-0.37,1.94-0.78,2.89-1.21c-2.02,2.5-3.93,5.09-5.46,7.92
				c-1.71,3.16-3.47,6.93-3.64,10.57c-0.16,3.37,1.46,7.08,4.62,8.27c5.42,2.05,12.1-1.78,16.86-4.16c2.81-1.4,5.49-3.05,8.03-4.88
				c1.39-1,7.05-4.34,7.31-6.04c-0.16,1.03-0.26,2.07-0.24,3.11c0.03,1.36,0.48,2.6,1.11,3.79c0.36,0.51,0.75,0.99,1.17,1.46
				c0.15,0.12,0.3,0.24,0.46,0.36c0.46,0.44,0.97,0.79,1.53,1.07c1.36,0.75,2.85,0.93,4.36,1.06c0.43,0.02,0.86,0.01,1.29-0.05
				c0.91-0.07,1.84-0.25,2.73-0.45c2.23-0.5,4.4-1.41,6.48-2.33c0.72-0.32,1.44-0.64,2.16-0.96c1.49-0.66,2.96-1.35,4.43-2.04
				c2.59-1.22,5.18-2.42,7.79-3.6c1.14-0.48,2.55-1.7,3.86-1.08c2.02,0.98,2.28,3.72,2.97,5.61c1.37,3.7,5.78,4.13,9.16,4.48
				c8.18,0.85,16.2-0.36,24.36-0.83c2.07-0.12,4.15-0.31,6.22-0.36c21.74-0.52,43.9-1.61,65.62-0.87c2.41,0.08,4.82,0.17,7.23,0.21
				c1.29,0.02,2.57,0.03,3.86,0.02c1-0.01,1.98-0.16,2.96-0.29c0.29-0.04,0.57-0.08,0.86-0.12c0.67-0.18,1.31-0.43,1.93-0.75
				c0.47-0.33,0.92-0.69,1.35-1.07c0.66-0.66,1.11-1.44,1.37-2.34C411.09,154.29,411.09,153.35,410.84,152.41z M198.72,124.47
				c1.07-2.77,2.12-5.54,3.25-8.29c4.26-9.77,7.8-17.85,15.54-28.43c0.93-1.28,4.52-5.49,5.85-5.38c2.27,0.19-0.68,8.82-1.18,10.37
				c-1.21,3.75-2.94,7.32-4.97,10.7c-4.04,6.7-9.24,12.6-14.58,18.28c-1.44,1.53-2.86,3.07-4.34,4.56
				c-0.15,0.15-0.29,0.29-0.44,0.44C198.14,125.97,198.43,125.22,198.72,124.47z M158.42,150.26c-1.01,1.73-2.18,3.36-3.37,4.96
				c-0.83,1.04-1.69,2.02-2.69,2.89c-0.28,0.18-0.55,0.36-0.84,0.51c-0.01-0.01-0.03-0.01-0.04-0.02c-0.08-0.08-0.17-0.16-0.25-0.25
				c-0.07-0.12-0.14-0.24-0.21-0.36c-0.04-0.13-0.07-0.26-0.1-0.4c-0.01-0.46,0.01-0.92,0.04-1.37c0.12-0.62,0.24-1.25,0.38-1.87
				c0,0,0,0,0,0c0.04-0.13,0.07-0.26,0.09-0.39c0.35-1.5,0.78-2.99,1.3-4.43c0.67-1.4,1.44-2.76,2.24-4.09
				c0.07,0.08,0.15,0.15,0.22,0.22c1.22,1.19,2.72,2.04,4.28,2.7C159.14,149,158.79,149.63,158.42,150.26z M164.03,134.85
				c-0.19,1.21-0.42,2.41-0.69,3.61c-0.15-0.09-0.3-0.19-0.45-0.28c-0.15-0.14-0.29-0.29-0.43-0.44c-0.33-0.5-0.63-1.02-0.9-1.56
				c-0.24-0.69-0.42-1.39-0.56-2.11c-0.11-1.37-0.07-2.73,0.05-4.1c0.09-0.51,0.2-1.02,0.33-1.53c0.1-0.38,0.23-0.75,0.38-1.11
				c0.26-0.55,0.54-1.06,0.88-1.56c0.02-0.02,0.04-0.05,0.07-0.07c0.03,0.02,0.06,0.03,0.09,0.05c0.07,0.07,0.15,0.14,0.22,0.22
				c0.14,0.23,0.28,0.46,0.4,0.7c0.31,0.88,0.51,1.77,0.67,2.69c0.1,0.8,0.16,1.61,0.15,2.42
				C164.21,132.82,164.14,133.83,164.03,134.85z"/>
			<path class="st46" d="M192.66,153.49c0.04,0.04,0.07,0.09,0.11,0.14C192.73,153.59,192.7,153.54,192.66,153.49L192.66,153.49
				L192.66,153.49z"/>
			<path class="st46" d="M192.51,153.5c0.02,0.04,0.04,0.09,0.05,0.14C192.54,153.59,192.52,153.54,192.51,153.5
				C192.51,153.5,192.51,153.5,192.51,153.5L192.51,153.5L192.51,153.5z"/>
		</g>
		<g>
			<path class="st51" d="M123.27,201.58h-2.45V184.1h5.61c0.84,0,1.64,0.09,2.4,0.26c0.76,0.17,1.42,0.45,1.99,0.83
				c0.57,0.38,1.02,0.88,1.35,1.49s0.49,1.37,0.49,2.26c0,1.28-0.4,2.32-1.19,3.11c-0.79,0.79-1.81,1.29-3.06,1.51l4.89,8.03h-2.96
				l-4.44-7.78h-2.62V201.58z M123.27,191.76h2.81c0.58,0,1.11-0.05,1.61-0.15c0.49-0.1,0.93-0.26,1.3-0.48
				c0.37-0.22,0.66-0.51,0.88-0.86s0.32-0.79,0.32-1.32c0-0.53-0.11-0.97-0.32-1.32c-0.21-0.35-0.5-0.64-0.85-0.85
				c-0.35-0.21-0.77-0.37-1.25-0.46c-0.48-0.09-0.98-0.14-1.51-0.14h-2.99V191.76z"/>
			<path class="st51" d="M154.23,192.82c0,1.35-0.24,2.59-0.7,3.72c-0.47,1.13-1.11,2.1-1.94,2.91c-0.82,0.81-1.8,1.45-2.94,1.9
				c-1.14,0.45-2.37,0.68-3.7,0.68c-1.33,0-2.56-0.23-3.69-0.68c-1.13-0.45-2.1-1.09-2.93-1.9c-0.82-0.81-1.47-1.79-1.93-2.91
				s-0.69-2.37-0.69-3.72c0-1.37,0.23-2.61,0.69-3.74c0.46-1.13,1.1-2.09,1.93-2.89c0.82-0.8,1.8-1.42,2.93-1.86
				c1.13-0.44,2.36-0.67,3.69-0.67c1.33,0,2.57,0.22,3.7,0.67c1.14,0.44,2.12,1.07,2.94,1.86c0.82,0.8,1.47,1.76,1.94,2.89
				C154,190.21,154.23,191.45,154.23,192.82z M151.59,192.82c0-0.95-0.16-1.86-0.47-2.7c-0.31-0.85-0.76-1.59-1.33-2.24
				c-0.58-0.64-1.27-1.15-2.09-1.52c-0.81-0.37-1.73-0.56-2.75-0.56c-1,0-1.91,0.18-2.73,0.56c-0.82,0.37-1.51,0.88-2.07,1.52
				c-0.57,0.64-1.01,1.39-1.32,2.24s-0.47,1.75-0.47,2.7c0,0.97,0.16,1.88,0.47,2.74c0.31,0.86,0.76,1.6,1.33,2.24
				c0.58,0.63,1.27,1.13,2.07,1.49c0.81,0.36,1.71,0.54,2.72,0.54c1,0,1.92-0.18,2.74-0.54c0.82-0.36,1.52-0.86,2.1-1.49
				c0.58-0.63,1.02-1.38,1.33-2.24C151.43,194.7,151.59,193.79,151.59,192.82z"/>
			<path class="st51" d="M158.18,184.1h6.02c0.66,0,1.32,0.07,1.98,0.22c0.66,0.15,1.25,0.4,1.77,0.74c0.52,0.35,0.94,0.8,1.26,1.36
				c0.32,0.56,0.48,1.26,0.48,2.1c0,0.97-0.28,1.79-0.84,2.44c-0.56,0.66-1.3,1.11-2.22,1.36v0.05c0.56,0.07,1.08,0.21,1.56,0.43
				c0.48,0.22,0.89,0.51,1.23,0.88c0.35,0.36,0.61,0.79,0.8,1.28c0.19,0.49,0.28,1.04,0.28,1.65c0,0.84-0.17,1.57-0.52,2.2
				c-0.35,0.63-0.81,1.14-1.41,1.54c-0.59,0.4-1.29,0.71-2.09,0.91c-0.8,0.21-1.65,0.31-2.56,0.31h-5.75V184.1z M160.63,191.49h3.19
				c0.46,0,0.9-0.05,1.32-0.16c0.42-0.11,0.79-0.27,1.1-0.49c0.31-0.22,0.56-0.5,0.74-0.84c0.18-0.34,0.27-0.74,0.27-1.22
				c0-0.94-0.35-1.61-1.04-2.01c-0.69-0.4-1.62-0.61-2.79-0.61h-2.79V191.49z M160.63,199.51h3.06c0.51,0,1.03-0.05,1.54-0.14
				c0.52-0.09,0.99-0.25,1.41-0.48c0.42-0.23,0.76-0.54,1.01-0.93c0.26-0.39,0.38-0.88,0.38-1.47c0-1.04-0.35-1.79-1.06-2.25
				c-0.71-0.46-1.73-0.69-3.06-0.69h-3.28V199.51z"/>
			<path class="st51" d="M177.1,201.58h-2.44V184.1h2.44V201.58z"/>
			<path class="st51" d="M194.29,198.08h0.05V184.1h2.45v17.48h-3.09l-9.24-14.27h-0.05v14.27h-2.44V184.1h3.19L194.29,198.08z"/>
			<path class="st51" d="M208.43,184.1h6.03c0.66,0,1.32,0.07,1.98,0.22c0.66,0.15,1.25,0.4,1.77,0.74c0.52,0.35,0.94,0.8,1.26,1.36
				s0.48,1.26,0.48,2.1c0,0.97-0.28,1.79-0.84,2.44c-0.56,0.66-1.3,1.11-2.22,1.36v0.05c0.56,0.07,1.08,0.21,1.56,0.43
				c0.48,0.22,0.89,0.51,1.23,0.88c0.35,0.36,0.61,0.79,0.8,1.28c0.19,0.49,0.28,1.04,0.28,1.65c0,0.84-0.17,1.57-0.52,2.2
				c-0.35,0.63-0.81,1.14-1.41,1.54c-0.59,0.4-1.29,0.71-2.09,0.91c-0.8,0.21-1.65,0.31-2.56,0.31h-5.75V184.1z M210.88,191.49h3.19
				c0.46,0,0.9-0.05,1.32-0.16c0.42-0.11,0.79-0.27,1.1-0.49c0.31-0.22,0.56-0.5,0.74-0.84c0.18-0.34,0.27-0.74,0.27-1.22
				c0-0.94-0.35-1.61-1.04-2.01c-0.69-0.4-1.62-0.61-2.79-0.61h-2.79V191.49z M210.88,199.51h3.06c0.51,0,1.02-0.05,1.54-0.14
				c0.52-0.09,0.99-0.25,1.41-0.48c0.42-0.23,0.76-0.54,1.01-0.93c0.25-0.39,0.38-0.88,0.38-1.47c0-1.04-0.35-1.79-1.06-2.25
				c-0.71-0.46-1.73-0.69-3.06-0.69h-3.28V199.51z"/>
			<path class="st51" d="M225.62,201.58h-2.72l7.58-17.48h2.22l7.51,17.48h-2.77l-1.78-4.3h-8.3L225.62,201.58z M228.24,195.14h6.54
				l-3.26-8.2L228.24,195.14z"/>
			<path class="st51" d="M245.52,201.58h-2.44V184.1h5.61c0.84,0,1.64,0.09,2.39,0.26c0.76,0.17,1.42,0.45,1.99,0.83
				c0.57,0.38,1.02,0.88,1.35,1.49c0.33,0.62,0.49,1.37,0.49,2.26c0,1.28-0.4,2.32-1.18,3.11c-0.79,0.79-1.81,1.29-3.06,1.51
				l4.89,8.03h-2.96l-4.44-7.78h-2.62V201.58z M245.52,191.76h2.82c0.58,0,1.11-0.05,1.61-0.15c0.49-0.1,0.93-0.26,1.3-0.48
				c0.37-0.22,0.66-0.51,0.88-0.86c0.21-0.35,0.32-0.79,0.32-1.32c0-0.53-0.11-0.97-0.32-1.32c-0.21-0.35-0.5-0.64-0.85-0.85
				s-0.77-0.37-1.25-0.46c-0.48-0.09-0.98-0.14-1.51-0.14h-2.99V191.76z"/>
			<path class="st51" d="M276.49,192.82c0,1.35-0.24,2.59-0.7,3.72s-1.11,2.1-1.94,2.91c-0.82,0.81-1.8,1.45-2.94,1.9
				c-1.14,0.45-2.37,0.68-3.7,0.68c-1.33,0-2.56-0.23-3.69-0.68c-1.13-0.45-2.1-1.09-2.93-1.9c-0.82-0.81-1.47-1.79-1.93-2.91
				s-0.69-2.37-0.69-3.72c0-1.37,0.23-2.61,0.69-3.74c0.46-1.13,1.1-2.09,1.93-2.89c0.82-0.8,1.8-1.42,2.93-1.86
				c1.13-0.44,2.36-0.67,3.69-0.67c1.33,0,2.57,0.22,3.7,0.67c1.14,0.44,2.12,1.07,2.94,1.86c0.82,0.8,1.47,1.76,1.94,2.89
				C276.26,190.21,276.49,191.45,276.49,192.82z M273.85,192.82c0-0.95-0.16-1.86-0.47-2.7c-0.31-0.85-0.76-1.59-1.33-2.24
				c-0.58-0.64-1.27-1.15-2.09-1.52c-0.81-0.37-1.73-0.56-2.75-0.56c-1,0-1.91,0.18-2.73,0.56c-0.82,0.37-1.51,0.88-2.07,1.52
				c-0.57,0.64-1.01,1.39-1.32,2.24s-0.47,1.75-0.47,2.7c0,0.97,0.16,1.88,0.47,2.74c0.31,0.86,0.76,1.6,1.33,2.24
				c0.58,0.63,1.27,1.13,2.07,1.49c0.81,0.36,1.71,0.54,2.72,0.54c1,0,1.92-0.18,2.74-0.54c0.82-0.36,1.52-0.86,2.1-1.49
				c0.58-0.63,1.02-1.38,1.33-2.24C273.69,194.7,273.85,193.79,273.85,192.82z"/>
			<path class="st51" d="M292.76,198.08h0.05V184.1h2.44v17.48h-3.09l-9.24-14.27h-0.05v14.27h-2.45V184.1h3.19L292.76,198.08z"/>
			<path class="st51" d="M306.91,184.1h6c1.12,0,2.24,0.17,3.36,0.49c1.12,0.33,2.13,0.85,3.04,1.56c0.91,0.71,1.64,1.61,2.2,2.72
				c0.56,1.1,0.84,2.43,0.84,3.98c0,1.5-0.28,2.79-0.84,3.89s-1.29,2-2.2,2.72c-0.91,0.72-1.92,1.25-3.04,1.61
				c-1.12,0.35-2.24,0.53-3.36,0.53h-6V184.1z M309.36,199.44h3.06c1.05,0,2.03-0.15,2.93-0.44c0.9-0.3,1.67-0.72,2.32-1.28
				c0.65-0.56,1.16-1.25,1.52-2.07c0.36-0.82,0.54-1.75,0.54-2.79c0-1.09-0.18-2.04-0.54-2.86c-0.36-0.82-0.87-1.51-1.52-2.06
				c-0.65-0.55-1.42-0.97-2.32-1.26c-0.9-0.29-1.87-0.43-2.93-0.43h-3.06V199.44z"/>
			<path class="st51" d="M328.77,199.41h9.14v2.17h-11.58V184.1h11.21v2.15h-8.77v5.24h8.25v2.1h-8.25V199.41z"/>
			<path class="st51" d="M350.47,187.34c-0.35-0.48-0.81-0.87-1.41-1.17c-0.59-0.3-1.26-0.46-2-0.46c-0.4,0-0.79,0.05-1.2,0.16
				s-0.77,0.28-1.1,0.52c-0.33,0.24-0.6,0.54-0.8,0.89c-0.21,0.35-0.31,0.78-0.31,1.27c0,0.48,0.1,0.88,0.28,1.2
				c0.19,0.32,0.44,0.59,0.77,0.81c0.32,0.22,0.7,0.41,1.14,0.57c0.44,0.16,0.9,0.32,1.39,0.48c0.59,0.18,1.19,0.39,1.8,0.62
				c0.61,0.23,1.16,0.54,1.65,0.91c0.49,0.38,0.9,0.85,1.21,1.42c0.31,0.57,0.47,1.29,0.47,2.16c0,0.91-0.17,1.69-0.51,2.36
				c-0.34,0.67-0.79,1.22-1.35,1.65c-0.56,0.44-1.21,0.76-1.94,0.98c-0.73,0.21-1.49,0.32-2.26,0.32c-1.1,0-2.17-0.21-3.2-0.64
				s-1.88-1.06-2.56-1.9l1.9-1.61c0.41,0.61,0.96,1.1,1.65,1.48c0.69,0.38,1.44,0.57,2.25,0.57c0.41,0,0.82-0.06,1.23-0.17
				s0.79-0.3,1.12-0.54c0.34-0.25,0.61-0.56,0.83-0.93c0.21-0.37,0.32-0.82,0.32-1.35s-0.11-0.97-0.33-1.32
				c-0.22-0.35-0.52-0.65-0.9-0.9c-0.38-0.25-0.82-0.46-1.32-0.63c-0.5-0.17-1.03-0.35-1.59-0.53c-0.56-0.16-1.11-0.37-1.65-0.61
				s-1.03-0.54-1.46-0.91c-0.43-0.37-0.77-0.83-1.04-1.37c-0.26-0.54-0.4-1.22-0.4-2.02c0-0.87,0.18-1.62,0.53-2.25
				c0.35-0.63,0.81-1.14,1.38-1.56c0.57-0.41,1.21-0.71,1.93-0.9c0.72-0.19,1.44-0.28,2.16-0.28c1.02,0,1.98,0.18,2.86,0.54
				c0.89,0.36,1.61,0.85,2.15,1.46L350.47,187.34z"/>
			<path class="st51" d="M358.89,201.58h-2.45V184.1h2.45V201.58z"/>
			<path class="st51" d="M376.94,187.71c-0.53-0.58-1.2-1.04-2.01-1.38c-0.81-0.35-1.72-0.52-2.73-0.52c-1.02,0-1.94,0.18-2.77,0.56
				c-0.82,0.37-1.52,0.88-2.1,1.52c-0.58,0.64-1.02,1.39-1.33,2.24c-0.31,0.85-0.47,1.75-0.47,2.7c0,0.97,0.16,1.88,0.47,2.74
				c0.31,0.86,0.76,1.6,1.33,2.24c0.58,0.63,1.28,1.13,2.12,1.49c0.84,0.36,1.78,0.54,2.82,0.54c0.82,0,1.58-0.07,2.27-0.22
				c0.69-0.15,1.29-0.36,1.8-0.64v-4.86h-3.88v-2.07h6.3v8.47c-0.92,0.49-1.93,0.87-3.01,1.14c-1.09,0.26-2.27,0.4-3.56,0.4
				c-1.37,0-2.62-0.23-3.77-0.68c-1.14-0.45-2.13-1.09-2.95-1.9c-0.82-0.81-1.47-1.79-1.93-2.91c-0.46-1.13-0.69-2.37-0.69-3.72
				c0-1.37,0.24-2.61,0.7-3.74c0.47-1.13,1.12-2.09,1.95-2.89c0.83-0.8,1.82-1.42,2.95-1.86c1.14-0.44,2.37-0.67,3.7-0.67
				c1.4,0,2.65,0.21,3.74,0.62c1.09,0.41,2,0.96,2.73,1.65L376.94,187.71z"/>
			<path class="st51" d="M395.91,198.08h0.05V184.1h2.44v17.48h-3.09l-9.24-14.27h-0.05v14.27h-2.45V184.1h3.19L395.91,198.08z"/>
		</g>
	</g>
</g>
<g id="Layer_2">
</g>
</svg>
